<svg height="700pt" preserveAspectRatio="xMidYMid meet" viewBox="0 0 700 700" width="700pt" xmlns="http://www.w3.org/2000/svg"><path d="m4188 6445c-2-1-32-5-68-8-209-18-439-98-603-211-218-150-404-395-514-677-21-54-42-97-48-95-33 14-199 66-226 71-18 3-35 8-39 10s-35 7-71 10c-82 8-110 13-116 19-3 3-20 42-39 86-150 368-469 646-854 746-180 46-448 55-615 19-454-96-802-409-969-873-26-73-35-171-16-173 6-1 13-2 18-3 4-1 69-17 145-35s140-31 141-30c1 2 15 42 30 89 36 111 75 194 131 281 48 72 173 206 235 251 112 80 288 150 416 166 414 49 786-137 979-490l36-67-28-7c-15-3-50-13-78-22-27-9-56-17-63-18-32-6-192-87-262-133-171-112-346-310-438-496-67-135-117-268-124-329l-3-29 130-33c72-18 146-36 165-39l35-6 26 83c58 183 141 322 269 448 121 119 274 205 428 240l33 8-2-124c0-68-7-154-14-191s-15-81-18-98c-12-69-72-228-131-350-82-166-140-254-393-594-114-152-286-382-382-511s-252-338-346-465c-94-126-231-311-305-410s-232-312-352-473l-218-292v-93-92l840 1c627 1 838-1 832-10-62-81-485-652-497-670s-15-45-13-112l3-88 1265-1c696 0 1271 1 1278 3 9 3 12 47 12 173v169l-1005 2-1006 3 23 31c30 41 33 44 216 289l157 210 195 2c107 1 210 2 228 2l32 1v170 170h-95c-52 0-95 3-95 6 0 4 130 183 167 229 4 6 73 98 152 205 189 255 176 242 191 194 79-254 223-505 384-667 101-102 117-116 197-169 169-110 425-197 609-207 22-1 34-17 88-124 103-205 223-360 365-474 90-73 133-103 146-103 5 0 11-3 13-8 5-12 181-90 250-112 155-48 280-65 478-64 216 0 332 17 501 74 508 170 825 634 963 1410 17 97 23 138 32 212 3 29 10 80 14 113 10 67 6 1393-3 1440-4 17-9 57-12 90-4 33-8 66-10 73-3 7-7 34-11 60-3 26-15 89-26 141-11 51-21 101-23 110-51 246-166 533-288 716-213 319-491 491-907 559-14 3-38 5-55 5-28 1-33 8-83 111-50 102-137 244-193 314-27 34-155 162-188 189-36 29-134 93-181 119-62 33-217 95-260 103-3 1-18 4-35 8-16 4-41 9-55 12s-36 7-50 10c-65 13-116 17-262 20-86 2-158 2-160 0zm322-356c293-43 528-205 692-474l36-60-101-21c-568-120-922-526-1096-1257-16-67-32-140-35-161-4-21-8-48-11-60-9-42-33-222-41-311-3-33-7-76-9-95-26-231-26-952-1-1170 3-19 7-66 11-105 3-38 8-81 10-95s6-47 10-75c9-70 24-157 42-245 8-41 17-83 19-93s6-27 9-38c8-25-5-24-95 6-338 115-582 424-714 903-40 147-42 134 33 236 132 178 173 245 259 416 220 439 265 862 135 1274-64 205-192 409-343 550l-52 48 22 62c172 473 485 740 910 773 41 3 76 6 77 7 7 5 167-5 233-15zm887-964c13-50 26-103 28-120 3-16 10-50 15-75 10-47 18-98 26-165 3-22 7-51 9-65 3-14 7-56 11-95 3-38 7-86 10-105 23-200 23-901 0-1120-3-19-7-64-11-100-10-104-36-286-49-345-3-11-12-54-20-95-65-307-206-606-360-762-160-163-289-233-506-278-137-28-129-32-162 89-15 57-30 118-32 135-3 17-12 65-20 106s-17 100-21 130c-3 30-8 66-10 80-10 67-24 226-31 350-6 116-6 636 0 735 12 179 17 251 21 275 2 14 6 50 10 80 13 113 16 137 32 220 8 47 17 96 19 110 9 49 75 280 99 345 122 324 304 547 543 665 70 34 204 77 269 86 26 3 49 7 51 8 1 2 14 2 29 1 25-1 28-7 50-90zm-2672 42c28-8 71-24 96-35l46-20-17-94c-10-51-20-111-23-133s-10-69-16-105c-5-36-13-96-16-135-4-38-8-86-10-105-19-165-27-777-13-1010 10-154 17-248 23-290 2-19 7-57 10-85 3-27 11-82 17-122l11-72-244-328c-134-180-247-332-252-338-5-5-67-89-138-185s-142-190-157-209-30-38-33-42c-3-5-316-8-698-7l-693 3 194 260c107 143 246 330 309 415 64 85 270 362 459 615 640 857 629 842 702 965 128 218 211 423 259 641 25 114 34 206 33 345l-1 111 51-12c28-7 74-19 101-28zm3095 9c358-109 613-433 739-941 31-125 56-255 66-340 3-27 8-59 10-70s7-51 10-90c4-38 8-81 11-95 23-147 23-913-1-1145-2-22-7-67-10-100-12-120-16-151-25-200-5-27-11-66-14-85-18-126-73-333-122-462-194-508-522-751-1014-750-100 1-124 2-213 17-267 44-510 217-665 473-18 29-32 54-32 56s28 9 63 15c161 31 334 96 455 171 81 51 214 170 282 252 143 173 257 398 335 658 28 91 71 272 81 336 3 21 9 57 14 79 8 35 32 231 45 355 28 276 28 999 0 1268-2 20-7 64-10 97s-8 69-10 80-7 43-10 70c-8 72-34 220-51 290-7 33-14 63-14 68 0 11 30 8 80-7zm-2535-502c24-50 56-135 71-190 24-88 27-117 28-269 1-93-2-189-6-212-31-183-95-351-222-587-14-27-26-43-27-35s-3 28-4 44c-22 186-22 937-1 1052 2 10 7 54 11 97s8 86 10 95 7 44 11 76c4 33 9 63 10 68 1 4 2 17 3 29 1 19 7 15 37-27 19-28 55-91 79-141z" transform="matrix(.1 0 0 -.1 0 700)"/></svg>