<svg viewBox="0 0 500 309.9296" xmlns="http://www.w3.org/2000/svg"><g fill="#191d2f"><path d="m126.0725 186.3547a19.0855 19.0855 0 0 1 -19.5215-18.6395q-.0143-.6126.011-1.2251a18.4482 18.4482 0 0 1 17.3474-19.487q.7974-.0463 1.5966-.0235a24.7862 24.7862 0 0 1 16.3237 6.7631l7.0819-10.8706a31.62 31.62 0 0 0 -24.3263-9.3835 32.4 32.4 0 0 0 -33.8961 30.83q-.0555 1.1732-.026 2.3481a32.4 32.4 0 0 0 31.574 33.2046q1.1742.03 2.3481-.026a35.4093 35.4093 0 0 0 25.6718-10.3041l-5.9842-11.26a28.7166 28.7166 0 0 1 -18.2004 8.0735z"/><path d="m187.5786 133.4886c-18.944 0-34.3117 13.668-34.3117 33.1785s15.3677 33.0016 34.4887 33.1786 34.3117-13.668 34.3117-33.1785-15.3673-33.1786-34.4887-33.1786zm.177 52.8661a18.7669 18.7669 0 0 1 -18.5762-18.9558q.0038-.366.0217-.7317a18.767 18.767 0 0 1 17.8227-19.666q.3657-.0179.7318-.0216a18.3791 18.3791 0 0 1 4.5678.6373 12.3579 12.3579 0 1 0 12.889 12.2871 21.5639 21.5639 0 0 1 1.1331 6.7632 18.6606 18.6606 0 0 1 -17.6055 19.6593q-.4917.0272-.9844.0282z"/><path d="m264.169 133.3115a21.7769 21.7769 0 0 0 -18.7316 9.1711h-.177s.177-2.0538.177-5.2406v-27.1944h-15.2968v88.0985h14.6241v-3.541c0-2.4432-.1771-4.32-.1771-4.32h.1771a21.9538 21.9538 0 0 0 18.5545 9.3835c16.5007 0 28.6815-13.1369 28.6815-33.1786s-10.8707-33.1785-27.8317-33.1785zm-3.541 53.1141c-10.6228 0-15.5447-9.7376-15.5447-19.5106 0-14.1637 7.6839-20.0417 15.7572-20.0417 9.171 0 15.5447 7.8609 15.5447 19.8647.0708 12.6765-7.0819 19.7938-15.7572 19.7938z"/><path d="m333.2526 133.4886c-18.944 0-34.3116 13.668-34.3116 33.1785s15.3676 33.1786 34.4887 33.1786 34.3116-13.668 34.3116-33.1785-15.3676-33.1786-34.4887-33.1786zm.1771 52.8661a18.5543 18.5543 0 0 1 -18.5891-18.52q-.001-.5842.0346-1.1677a18.767 18.767 0 0 1 17.8227-19.666q.3655-.0179.7318-.0216a18.4791 18.4791 0 0 1 4.1428.4957 12.4995 12.4995 0 1 0 13.42 12.889 21.6336 21.6336 0 0 1 .9914 6.2674 18.6606 18.6606 0 0 1 -17.568 19.6929q-.4925.0284-.9859.0303z"/><path d="m406.55 184.8321a11.1538 11.1538 0 0 1 -12.3578-12.0037v-24.5384h14.1637v-12.57h-14.1638v-18.165h-15.226v18.3774h-8.5691v12.57h8.073v26.6276c0 21.2456 17.2444 23.7951 25.8842 23.7951a27.3388 27.3388 0 0 0 4.9928-.3895v-13.88a18.9107 18.9107 0 0 1 -2.797.1765z"/></g></svg>