<svg id="Ebene_1" data-name="Ebene 1" xmlns="http://www.w3.org/2000/svg" viewBox="0 0 500 309.9296"><defs><style>.cls-1{fill:#191d2f;}</style></defs><title>cobot</title><path class="cls-1" d="M126.0725,186.3547a19.0855,19.0855,0,0,1-19.5215-18.6395q-.0143-.6126.011-1.2251a18.4482,18.4482,0,0,1,17.3474-19.487q.7974-.0463,1.5966-.0235a24.7862,24.7862,0,0,1,16.3237,6.7631l7.0819-10.8706a31.62,31.62,0,0,0-24.3263-9.3835,32.4,32.4,0,0,0-33.8961,30.83q-.0555,1.1732-.026,2.3481a32.4,32.4,0,0,0,31.574,33.2046q1.1742.03,2.3481-.026a35.4093,35.4093,0,0,0,25.6718-10.3041l-5.9842-11.26A28.7166,28.7166,0,0,1,126.0725,186.3547Z"/><path class="cls-1" d="M187.5786,133.4886c-18.944,0-34.3117,13.668-34.3117,33.1785s15.3677,33.0016,34.4887,33.1786,34.3117-13.668,34.3117-33.1785S206.7,133.4886,187.5786,133.4886Zm.177,52.8661a18.7669,18.7669,0,0,1-18.5762-18.9558q.0038-.366.0217-.7317a18.767,18.767,0,0,1,17.8227-19.666q.3657-.0179.7318-.0216a18.3791,18.3791,0,0,1,4.5678.6373,12.3579,12.3579,0,1,0,12.889,12.2871h0a21.5639,21.5639,0,0,1,1.1331,6.7632A18.6606,18.6606,0,0,1,188.74,186.3265Q188.2483,186.3537,187.7556,186.3547Z"/><path class="cls-1" d="M264.169,133.3115a21.7769,21.7769,0,0,0-18.7316,9.1711h-.177s.177-2.0538.177-5.2406V110.0476H230.1406v88.0985h14.6241v-3.541c0-2.4432-.1771-4.32-.1771-4.32h.1771a21.9538,21.9538,0,0,0,18.5545,9.3835c16.5007,0,28.6815-13.1369,28.6815-33.1786S281.13,133.3115,264.169,133.3115Zm-3.541,53.1141c-10.6228,0-15.5447-9.7376-15.5447-19.5106,0-14.1637,7.6839-20.0417,15.7572-20.0417,9.171,0,15.5447,7.8609,15.5447,19.8647.0708,12.6765-7.0819,19.7938-15.7572,19.7938Z"/><path class="cls-1" d="M333.2526,133.4886c-18.944,0-34.3116,13.668-34.3116,33.1785s15.3676,33.1786,34.4887,33.1786,34.3116-13.668,34.3116-33.1785S352.3737,133.4886,333.2526,133.4886Zm.1771,52.8661a18.5543,18.5543,0,0,1-18.5891-18.52q-.001-.5842.0346-1.1677a18.767,18.767,0,0,1,17.8227-19.666q.3655-.0179.7318-.0216a18.4791,18.4791,0,0,1,4.1428.4957,12.4995,12.4995,0,1,0,13.42,12.889,21.6336,21.6336,0,0,1,.9914,6.2674,18.6606,18.6606,0,0,1-17.568,19.6929Q333.9234,186.3528,333.43,186.3547Z"/><path class="cls-1" d="M406.55,184.8321a11.1538,11.1538,0,0,1-12.3578-12.0037V148.29h14.1637v-12.57H394.1921v-18.165h-15.226v18.3774H370.397v12.57H378.47V175.13c0,21.2456,17.2444,23.7951,25.8842,23.7951a27.3388,27.3388,0,0,0,4.9928-.3895v-13.88A18.9107,18.9107,0,0,1,406.55,184.8321Z"/></svg>