<svg id="Ebene_1" data-name="Ebene 1" xmlns="http://www.w3.org/2000/svg" viewBox="0 0 500 309.9296"><defs><style>.cls-1{fill:#35393a;}.cls-2{fill:#245f49;}.cls-3{fill:#9bb449;}</style></defs><title>logo-coconat</title><g id="text"><path class="cls-1" d="M50.56,263.2091l-1.3078-4.7953h-6.975L40.97,263.2091H36.61l6.9749-19.6171h5.2313l6.9749,19.6171Zm-2.18-7.8468c-1.3078-4.3594-2.18-6.539-2.18-6.975s-.4359-.8718-.4359-1.3078c-.4359,1.3078-1.3078,3.9235-2.6156,8.2828Z"/><path class="cls-1" d="M91.9738,263.2091H87.1786l-2.6157-10.0265a18.88,18.88,0,0,1-.4359-2.18,5.834,5.834,0,0,1-.4359-2.18,4.7389,4.7389,0,0,1-.436,2.18,18.88,18.88,0,0,1-.4359,2.18l-2.6156,10.0265H75.4083L70.6131,243.592h3.9234l2.6156,10.4625a26.1009,26.1009,0,0,1,.8718,5.2312,4.7391,4.7391,0,0,1,.436-2.18c0-.8719.4359-1.7438.4359-2.6156l3.0516-10.8984h3.9234L88.9223,254.49a18.88,18.88,0,0,1,.4359,2.18c0,.8718.436,1.7437.436,2.6156,0-.8719.4359-1.7438.4359-2.6156s.4359-1.7438.4359-2.6156l2.6157-10.4625h3.9234Z"/><path class="cls-1" d="M121.1814,253.6185a10.2538,10.2538,0,0,1-2.6156,7.4109,10.6078,10.6078,0,0,1-13.95,0,11.8066,11.8066,0,0,1,0-14.8218,10.6078,10.6078,0,0,1,13.95,0A10.2542,10.2542,0,0,1,121.1814,253.6185Zm-14.3858,0c0,2.18.4359,3.9235,1.3078,4.7953a4.25,4.25,0,0,0,3.9234,1.7438c3.4875,0,4.7953-2.18,4.7953-6.5391s-1.7438-6.539-4.7953-6.539a4.25,4.25,0,0,0-3.9234,1.7438C107.2315,249.6951,106.7956,251.4389,106.7956,253.6185Z"/><path class="cls-1" d="M133.3876,255.7982v7.4109h-4.3594V243.592h5.6672a11.5467,11.5467,0,0,1,6.1031,1.3078c1.3078.8719,1.7437,2.6156,1.7437,4.3594a6.3,6.3,0,0,1-.8719,3.0515,6.407,6.407,0,0,1-2.6156,2.18c3.0516,4.3593,4.7953,7.4109,5.6672,8.7187h-4.7953l-4.3593-7.4109Zm0-3.0515h1.3078a6.3006,6.3006,0,0,0,3.0515-.8719,3.16,3.16,0,0,0,0-4.3593c-.8718,0-1.7437-.436-3.0515-.436h-1.3078Z"/><path class="cls-1" d="M167.3905,263.2091h-4.7953l-5.2312-8.2828-1.7438,1.3078v6.975h-4.3593V243.592H155.62v9.1546l1.7438-2.18,5.2312-6.539h4.7953l-6.975,8.7186Z"/><path class="cls-1" d="M185.7,263.2091l-1.3078-4.7953H177.417l-1.3078,4.7953H171.75l6.9749-19.6171h5.2313l6.9749,19.6171Zm-2.18-7.8468c-1.3078-4.3594-2.18-6.539-2.18-6.975s-.4359-.8718-.4359-1.3078c-.4359,1.3078-1.3078,3.9235-2.6156,8.2828Z"/><path class="cls-1" d="M204.4449,263.2091h-4.3594V247.08h-5.2312V243.592h14.8218V247.08h-5.2312Z"/><path class="cls-1" d="M216.651,263.2091V243.592H221.01v19.6171Z"/><path class="cls-1" d="M247.6024,253.6185a10.2543,10.2543,0,0,1-2.6156,7.4109,10.6078,10.6078,0,0,1-13.95,0,11.8066,11.8066,0,0,1,0-14.8218,10.6078,10.6078,0,0,1,13.95,0A10.2546,10.2546,0,0,1,247.6024,253.6185Zm-14.3859,0c0,2.18.4359,3.9235,1.3078,4.7953a4.25,4.25,0,0,0,3.9234,1.7438c3.4875,0,4.7953-2.18,4.7953-6.5391s-1.7437-6.539-4.7953-6.539a4.25,4.25,0,0,0-3.9234,1.7438C233.6525,249.6951,233.2165,251.4389,233.2165,253.6185Z"/><path class="cls-1" d="M272.8865,263.2091h-5.2312l-8.2827-14.8218h0c0,2.6156.4359,4.3593.4359,5.6671v9.1547H256.321V243.592h5.2312l8.2828,14.8218h0V244.028h3.9234v19.1811Z"/><path class="cls-1" d="M297.2989,255.7982v7.4109H292.94V243.592h5.6672A11.5469,11.5469,0,0,1,304.71,244.9c1.3078.8719,1.7437,2.6156,1.7437,4.3594a6.3,6.3,0,0,1-.8719,3.0515,6.4073,6.4073,0,0,1-2.6155,2.18c3.0515,4.3593,4.7952,7.4109,5.6671,8.7187h-4.7953l-4.3594-7.4109Zm0-3.0515h1.3078a6.3009,6.3009,0,0,0,3.0515-.8719c.8719-.4359.8719-1.3078.8719-2.18a3.33,3.33,0,0,0-.8719-2.18c-.4359-.436-1.7437-.436-3.0515-.436h-1.3078Z"/><path class="cls-1" d="M326.9424,263.2091H315.6081V243.592h11.3343V247.08h-6.975v4.3594h6.539v3.4874h-6.539v5.2313h6.975Z"/><path class="cls-1" d="M342.636,263.2091h-4.3594V247.08h-5.2311V243.592h14.8217V247.08H342.636Z"/><path class="cls-1" d="M359.2015,255.7982v7.4109h-4.3593V243.592h5.6671a11.5467,11.5467,0,0,1,6.1031,1.3078c1.3078.8719,1.7438,2.6156,1.7438,4.3594a6.3009,6.3009,0,0,1-.8719,3.0515,6.407,6.407,0,0,1-2.6156,2.18c3.0515,4.3593,4.7953,7.4109,5.6672,8.7187h-4.7953l-4.3594-7.4109Zm0-3.0515h1.3078a6.3006,6.3006,0,0,0,3.0515-.8719,3.16,3.16,0,0,0,0-4.3593c-.4359-.436-1.7437-.436-3.0515-.436h-1.3078Z"/><path class="cls-1" d="M388.4091,263.2091H377.0748V243.592h11.3343V247.08h-7.4109v4.3594h6.539v3.4874h-6.539v5.2313h6.975v3.0515Z"/><path class="cls-1" d="M408.4621,263.2091l-1.3078-4.7953h-6.975l-1.7437,4.7953h-4.3594l6.975-19.6171h5.2312l6.9749,19.6171Zm-2.6156-7.8468c-1.3079-4.3594-2.18-6.539-2.18-6.975s-.4359-.8718-.4359-1.3078c-.436,1.3078-1.3079,3.9235-2.6156,8.2828Z"/><path class="cls-1" d="M427.2072,263.2091h-4.3593V247.08h-5.2312V243.592h14.8218V247.08h-5.2312Z"/><path class="cls-2" d="M36.61,173.8426a10.1763,10.1763,0,0,0-8.7187,4.3593c-2.18,3.0516-3.0515,7.4109-3.0515,12.6421,0,10.8984,4.3593,16.5655,12.6421,16.5655a42.9426,42.9426,0,0,0,7.4108-.8719c2.18-.8718,4.7953-1.7437,7.4109-2.6156V217a38.0546,38.0546,0,0,1-16.1295,3.0515c-8.7187,0-15.2577-2.6156-20.053-7.4109-4.7953-5.2312-6.975-12.2061-6.975-21.7967A34.7365,34.7365,0,0,1,12.6338,175.15a27.7164,27.7164,0,0,1,9.5906-10.4624c4.3593-2.6156,9.1546-3.4875,14.8217-3.4875a42.6423,42.6423,0,0,1,17.8733,3.9234L49.6882,177.33l-6.539-2.6155A33.6453,33.6453,0,0,0,36.61,173.8426Z"/><path class="cls-2" d="M125.1048,190.4081c0,9.5905-2.18,17.0014-6.9749,22.2326s-11.77,7.4109-20.9249,7.4109S81.0755,217.436,76.28,212.6407c-4.7953-5.2312-7.4109-12.6421-7.4109-22.2326s2.18-17.0015,6.975-21.7967c4.7953-5.2312,11.77-7.4109,20.9248-7.4109s16.13,2.6156,20.9249,7.4109S125.1048,180.8175,125.1048,190.4081Zm-39.67,0c0,11.3343,3.9234,16.5655,11.77,16.5655,3.9235,0,6.975-1.3078,8.7187-3.9234s3.0516-6.975,3.0516-12.6421-.8719-10.0265-3.0516-12.6421c-1.7437-2.6156-4.7952-3.9235-8.7187-3.9235C89.3582,173.8426,85.4348,179.51,85.4348,190.4081Z"/><path class="cls-2" d="M169.1342,173.8426a10.1763,10.1763,0,0,0-8.7187,4.3593c-2.18,3.0516-3.0515,7.4109-3.0515,12.6421,0,10.8984,4.3593,16.5655,12.6421,16.5655a42.9449,42.9449,0,0,0,7.4109-.8719c2.18-.8718,4.7952-1.7437,7.4108-2.6156V217a38.054,38.054,0,0,1-16.13,3.0515c-8.7187,0-15.2577-2.6156-20.053-7.4109C143.85,207.41,141.67,200.4346,141.67,190.844a34.7378,34.7378,0,0,1,3.4874-15.6936,27.7164,27.7164,0,0,1,9.5906-10.4624c4.3593-2.6156,9.1546-3.4875,14.8218-3.4875a42.643,42.643,0,0,1,17.8733,3.9234L182.2122,177.33l-6.539-2.6155A26.3812,26.3812,0,0,0,169.1342,173.8426Z"/><path class="cls-2" d="M257.6288,190.4081c0,9.5905-2.18,17.0014-6.9749,22.2326s-11.77,7.4109-20.9249,7.4109-16.13-2.6156-20.9248-7.4109c-4.7953-5.2312-7.4109-12.6421-7.4109-22.2326s2.18-17.0015,6.975-21.7967c4.7952-5.2312,11.77-7.4109,20.9248-7.4109s16.13,2.6156,20.9248,7.4109C255.4491,173.4066,257.6288,180.8175,257.6288,190.4081Zm-39.67,0c0,11.3343,3.9234,16.5655,11.77,16.5655,3.9235,0,6.975-1.3078,8.7187-3.9234s3.0516-6.975,3.0516-12.6421-.8719-10.0265-3.0516-12.6421c-1.7437-2.6156-4.7952-3.9235-8.7187-3.9235C221.8822,173.8426,217.9588,179.51,217.9588,190.4081Z"/><path class="cls-3" d="M334.3533,219.6157H313.8644L292.94,179.0738h-.4359c.4359,6.539.8718,11.3343.8718,14.8218v26.156h-13.95V162.0724h20.4889l20.9248,40.1059h.4359c-.4359-5.6671-.4359-10.4624-.4359-13.95v-26.156h13.95v57.5433Z"/><path class="cls-3" d="M390.1528,219.6157l-3.0515-10.8984H368.3561l-3.0515,10.8984H348.3031l18.7452-57.9793h20.9249l19.1811,57.9793ZM384.05,196.0752l-2.6156-9.59c-.4359-2.18-1.3078-4.7953-2.18-8.2828s-1.3078-5.6671-1.7438-6.9749a41.8215,41.8215,0,0,0-1.3078,6.539c-.8718,3.0515-2.18,9.1546-4.7953,18.3092Z"/><path class="cls-3" d="M446.8243,219.6157H431.1307V174.7145h-13.95V162.0724h43.5934v12.6421h-13.95Z"/><path class="cls-3" d="M474.2881,213.0767a7.531,7.531,0,0,1,2.18-5.6672,9.6341,9.6341,0,0,1,12.2062,0,7.531,7.531,0,0,1,2.18,5.6672,8.2873,8.2873,0,0,1-2.18,5.6671,9.6341,9.6341,0,0,1-12.2062,0A7.2186,7.2186,0,0,1,474.2881,213.0767Z"/></g><g id="icons"><path class="cls-3" d="M248.4742,97.1182l-17.0014-67.57-21.7967,87.6227H229.729V139.84h3.4875V117.1711H243.243l-1.7437,7.4109h14.3858v15.6936h3.4875V124.582h14.3858l-16.13-64.5182ZM231.4728,44.806l2.6156,10.0265h-5.2312ZM227.9853,58.32h6.975l1.3078,6.1031H226.2416Zm-2.18,10.0265H237.14l1.3078,6.1031H224.0619ZM223.19,77.9371h16.5655l1.3078,6.103h-19.617Zm-2.18,9.5905h21.3607l1.3078,6.1031H219.2666Zm-2.6156,9.5906h26.156l1.3078,6.103H216.651Zm-3.9235,16.5655,1.7438-6.5391h30.9513l1.7438,6.5391Zm54.4918,6.9749H246.2946l.8718-3.4875h20.9249Zm-1.7437-6.9749H252.3976l-.8718-3.0516h14.8217Zm-1.7438-6.975H250.6539l-.4359-2.18.4359-.8718H265.04Zm-1.7437-6.539H251.5257l.8719-3.0516h10.8983Zm-1.7437-6.975h-9.1547l.8719-3.0515h7.4109ZM260.2445,86.22h-5.6672l.8718-3.0515h3.9235Zm-3.9235-6.539,1.3079-4.3594,1.3078,4.3594Z"/><path class="cls-3" d="M197.47,117.1711H186.1356v12.2062H197.47Zm-3.4875,8.7187h-4.3593v-5.2312h4.3593Z"/><path class="cls-3" d="M171.75,100.6056V74.0136H141.2344v9.1547h-1.7437v3.4874h1.7437v3.4875h-1.7437v3.4875h1.7437v3.4874h-8.2828l-1.7437-40.1059a9.4814,9.4814,0,0,0,6.1031-8.7187,9.8154,9.8154,0,0,0-6.975-9.1546l-.8718-17.0014h-3.4875l-.8719,17.0014a9.8153,9.8153,0,0,0-6.9749,9.1546,9.4814,9.4814,0,0,0,6.1031,8.7187l-1.7438,40.1059h-6.1031v10.4625h-23.54v24.4123h23.54v9.1546h27.9v-8.2828h18.7452v8.2828h42.7215V108.4524L184.3919,87.5276Zm-54.9277,14.3859H102.4363v3.4874h14.3858v2.6156H102.4363v3.9234h14.3858v4.3594H97.205V111.94h19.6171Zm5.6671-66.698a5.6672,5.6672,0,1,1,5.6672,5.6672C125.1048,54.3966,122.4892,51.781,122.4892,48.2935Zm6.975,49.2606h-2.6156l1.3078-32.2591Zm11.77,35.7466v4.7953H120.31V101.4775h20.9248Zm21.7967-3.4875H144.7219v-7.4109h13.95v-3.4874h-13.95v-3.4875h13.95V111.94h-13.95v-3.4875h13.95V104.965h-13.95v-3.4875h13.95V97.99h-13.95V94.5026h13.95V91.0151h-13.95V87.5276h13.95V84.04h-13.95V78.373h23.1045v26.592l-4.7953,3.9234Zm14.8218,8.2828h-4.3594V125.0179h4.3594Zm24.4123,0H181.7763V121.5305H170.442V138.096h-3.4875V111.504h35.3107Zm-32.6951-30.08,15.2577-14.8218,15.2577,14.8218Z"/><rect class="cls-3" x="132.5157" y="104.529" width="4.3593" height="3.4875"/><rect class="cls-3" x="124.6689" y="104.529" width="4.3593" height="3.4875"/><rect class="cls-3" x="132.5157" y="110.6321" width="4.3593" height="3.4875"/><rect class="cls-3" x="124.6689" y="110.6321" width="4.3593" height="3.4875"/><rect class="cls-3" x="132.5157" y="116.7352" width="4.3593" height="3.4875"/><rect class="cls-3" x="124.6689" y="116.7352" width="4.3593" height="3.4875"/><rect class="cls-3" x="132.5157" y="122.8383" width="4.3593" height="3.4875"/><rect class="cls-3" x="124.6689" y="122.8383" width="4.3593" height="3.4875"/><rect class="cls-3" x="132.5157" y="128.5054" width="4.3593" height="3.4875"/><rect class="cls-3" x="124.6689" y="128.5054" width="4.3593" height="3.4875"/><path class="cls-3" d="M309.9409,86.22a16.8633,16.8633,0,0,0-16.5655,13.95h-2.18a13.7714,13.7714,0,0,0-13.95,13.95,14.0953,14.0953,0,0,0,12.2061,13.95v12.2061H292.94V128.07a14.6455,14.6455,0,0,0,11.3343-8.7187,12.73,12.73,0,0,0,3.9234.8719v20.0529h3.4875V120.2227a16.5783,16.5783,0,0,0,14.8218-16.5655A16.7628,16.7628,0,0,0,309.9409,86.22Zm-8.7187,30.0795h0a10.2612,10.2612,0,0,1-10.0265,8.2827,10.4624,10.4624,0,0,1,0-20.9248,5.5293,5.5293,0,0,1,2.6156.4359h.436c2.18.4359,3.4875,1.7437,4.7952,3.4875l.436.4359c0,.436.4359.436.4359.8719s.4359.4359.4359.8719,0,.4359.4359.8718c0,.436.436.8719.436,1.3078v2.18A1.9457,1.9457,0,0,1,301.2222,116.2993Zm8.7187,0a15.6716,15.6716,0,0,1-4.7952-.8719V111.504a2.6208,2.6208,0,0,0-.436-1.7438h0a3.3049,3.3049,0,0,0-.8718-1.7437h0a12.8239,12.8239,0,0,0-6.975-6.539,13.14,13.14,0,0,1,26.1561,1.7437A12.8447,12.8447,0,0,1,309.9409,116.2993Z"/><path class="cls-3" d="M177.4169,60.0637a1.5923,1.5923,0,0,0,2.18-.8718A92.9632,92.9632,0,0,1,291.1958,16.9063c42.2856,14.3858,68.0057,57.1073,61.9026,101.5726,0,.8719.4359,1.7438,1.3078,1.7438h.436c.8718,0,1.7437-.436,1.7437-1.3078A96.4664,96.4664,0,0,0,176.981,57.8841C176.5451,58.7559,176.5451,59.6278,177.4169,60.0637Z"/><polygon class="cls-3" points="343.508 122.838 350.483 134.608 362.253 128.069 343.508 122.838"/></g></svg>