<svg viewBox="0 0 500 309.9296" xmlns="http://www.w3.org/2000/svg"><g fill="#1a171b"><path d="m195.0137 124.1514 3.5649.8392a41.3917 41.3917 0 0 1 -3.1454 5.19 21.9762 21.9762 0 0 1 -3.1969 3.4064q-9.1218 8.4915-24.5846 8.4918a37.5371 37.5371 0 0 1 -17.4014-3.931 31.41 31.41 0 0 1 -6.7619-4.7187 28.78 28.78 0 0 1 -5.0854-6.3422 30.765 30.765 0 0 1 -4.2449-16.1439 29.3444 29.3444 0 0 1 2.5174-11.6353 32.2531 32.2531 0 0 1 6.6034-10.0645q8.5973-8.5953 22.1206-8.5956h1.467v57.8669q2.9876.3671 3.88.3662a26.2217 26.2217 0 0 0 15.986-5.5026 32.9678 32.9678 0 0 0 4.299-3.826 35.4116 35.4116 0 0 0 3.9822-5.4007zm-8.9114-43.1373a11.8553 11.8553 0 0 1 6.1862 1.6243 12.092 12.092 0 0 1 4.4023 4.4035 12.5837 12.5837 0 0 1 0 12.37 12.0876 12.0876 0 0 1 -4.4539 4.3507 11.7679 11.7679 0 0 1 -6.1346 1.6249 11.5585 11.5585 0 0 1 -6.0272-1.6249 12.4987 12.4987 0 0 1 -4.4022-4.4557 11.5384 11.5384 0 0 1 -1.6784-6.0806 11.7575 11.7575 0 0 1 1.6249-6.1322 12.5151 12.5151 0 0 1 4.4041-4.4557 11.6571 11.6571 0 0 1 6.0788-1.6243z"/><path d="m238.256 80.91v61.692h-1.676a35.2025 35.2025 0 0 1 -16.7741-4.0343 30.2284 30.2284 0 0 1 -11.8449-11.1125 29.51 29.51 0 0 1 -4.351-15.6732 29.8619 29.8619 0 0 1 9.4336-22.0144 31.5582 31.5582 0 0 1 10.4318-6.5517 35.0422 35.0422 0 0 1 12.7355-2.3059zm7.182 61.6923v-61.6923h1.2054a39.1116 39.1116 0 0 1 13.5747 2.2533 30.8022 30.8022 0 0 1 10.6413 6.3946 29.7545 29.7545 0 0 1 7.023 9.9066 31.5113 31.5113 0 0 1 2.4646 12.4228 29.3506 29.3506 0 0 1 -4.299 15.7243 30.3245 30.3245 0 0 1 -11.95 11.0074 36.36 36.36 0 0 1 -17.14 3.9827h-1.52z"/><path d="m205.66 191.8569v-39.7314h32.865v60.6437h-3.67a43.3249 43.3249 0 0 1 -15.4631-2.5157 25.04 25.04 0 0 1 -5.8687-3.0664 19.8991 19.8991 0 0 1 -4.3-4.1666 18.13 18.13 0 0 1 -3.5632-11.1636zm39.8363 20.9131v-60.6439h33.18v60.6439z"/><path d="m291.0971 229.2822v-77.1561h32.9695v77.1561zm40.0459-16.1979v-60.9582h1.94a34.7773 34.7773 0 0 1 16.5634 4.0355 30.2662 30.2662 0 0 1 11.8988 11.06 28.9755 28.9755 0 0 1 4.2972 15.5148 31.9125 31.9125 0 0 1 -2.2545 12.2127 28.2281 28.2281 0 0 1 -16.51 15.986 34.5222 34.5222 0 0 1 -12.6846 2.2546 3.5793 3.5793 0 0 0 -.6813-.0516 5.5192 5.5192 0 0 1 -.7857-.0535z"/></g><path d="m276.0942 117.3306a11.8612 11.8612 0 0 1 6.185 1.6255 12.0971 12.0971 0 0 1 4.4022 4.4041 12.5787 12.5787 0 0 1 0 12.37 12.1011 12.1011 0 0 1 -4.4556 4.3506 11.7536 11.7536 0 0 1 -6.1322 1.6255 11.56 11.56 0 0 1 -6.0278-1.6255 12.5 12.5 0 0 1 -4.4041-4.4557 11.55 11.55 0 0 1 -1.6771-6.0806 11.7373 11.7373 0 0 1 1.6255-6.1322 12.52 12.52 0 0 1 4.4023-4.4557 11.6628 11.6628 0 0 1 6.0818-1.626z" fill="#e6511e"/></svg>