<svg viewBox="0 0 500 309.9296" xmlns="http://www.w3.org/2000/svg"><path d="m50.56 263.2091-1.3078-4.7953h-6.975l-1.3072 4.7953h-4.36l6.9749-19.6171h5.2313l6.9749 19.6171zm-2.18-7.8468c-1.3078-4.3594-2.18-6.539-2.18-6.975s-.4359-.8718-.4359-1.3078c-.4359 1.3078-1.3078 3.9235-2.6156 8.2828z" fill="#35393a"/><path d="m91.9738 263.2091h-4.7952l-2.6157-10.0265a18.88 18.88 0 0 1 -.4359-2.18 5.834 5.834 0 0 1 -.4359-2.18 4.7389 4.7389 0 0 1 -.436 2.18 18.88 18.88 0 0 1 -.4359 2.18l-2.6156 10.0265h-4.7953l-4.7952-19.6171h3.9234l2.6156 10.4625a26.1009 26.1009 0 0 1 .8718 5.2312 4.7391 4.7391 0 0 1 .436-2.18c0-.8719.4359-1.7438.4359-2.6156l3.0516-10.8984h3.9234l3.0515 10.8983a18.88 18.88 0 0 1 .4359 2.18c0 .8718.436 1.7437.436 2.6156 0-.8719.4359-1.7438.4359-2.6156s.4359-1.7438.4359-2.6156l2.6157-10.4625h3.9234z" fill="#35393a"/><path d="m121.1814 253.6185a10.2538 10.2538 0 0 1 -2.6156 7.4109 10.6078 10.6078 0 0 1 -13.95 0 11.8066 11.8066 0 0 1 0-14.8218 10.6078 10.6078 0 0 1 13.95 0 10.2542 10.2542 0 0 1 2.6156 7.4109zm-14.3858 0c0 2.18.4359 3.9235 1.3078 4.7953a4.25 4.25 0 0 0 3.9234 1.7438c3.4875 0 4.7953-2.18 4.7953-6.5391s-1.7438-6.539-4.7953-6.539a4.25 4.25 0 0 0 -3.9234 1.7438c-.8719.8718-1.3078 2.6156-1.3078 4.7952z" fill="#35393a"/><path d="m133.3876 255.7982v7.4109h-4.3594v-19.6171h5.6672a11.5467 11.5467 0 0 1 6.1031 1.3078c1.3078.8719 1.7437 2.6156 1.7437 4.3594a6.3 6.3 0 0 1 -.8719 3.0515 6.407 6.407 0 0 1 -2.6156 2.18c3.0516 4.3593 4.7953 7.4109 5.6672 8.7187h-4.7953l-4.3593-7.4109zm0-3.0515h1.3078a6.3006 6.3006 0 0 0 3.0515-.8719 3.16 3.16 0 0 0 0-4.3593c-.8718 0-1.7437-.436-3.0515-.436h-1.3078z" fill="#35393a"/><path d="m167.3905 263.2091h-4.7953l-5.2312-8.2828-1.7438 1.3078v6.975h-4.3593v-19.6171h4.3591v9.1546l1.7438-2.18 5.2312-6.539h4.7953l-6.975 8.7186z" fill="#35393a"/><path d="m185.7 263.2091-1.3078-4.7953h-6.9752l-1.3078 4.7953h-4.3592l6.9749-19.6171h5.2313l6.9749 19.6171zm-2.18-7.8468c-1.3078-4.3594-2.18-6.539-2.18-6.975s-.4359-.8718-.4359-1.3078c-.4359 1.3078-1.3078 3.9235-2.6156 8.2828z" fill="#35393a"/><path d="m204.4449 263.2091h-4.3594v-16.1291h-5.2312v-3.488h14.8218v3.488h-5.2312z" fill="#35393a"/><path d="m216.651 263.2091v-19.6171h4.359v19.6171z" fill="#35393a"/><path d="m247.6024 253.6185a10.2543 10.2543 0 0 1 -2.6156 7.4109 10.6078 10.6078 0 0 1 -13.95 0 11.8066 11.8066 0 0 1 0-14.8218 10.6078 10.6078 0 0 1 13.95 0 10.2546 10.2546 0 0 1 2.6156 7.4109zm-14.3859 0c0 2.18.4359 3.9235 1.3078 4.7953a4.25 4.25 0 0 0 3.9234 1.7438c3.4875 0 4.7953-2.18 4.7953-6.5391s-1.7437-6.539-4.7953-6.539a4.25 4.25 0 0 0 -3.9234 1.7438c-.8718.8718-1.3078 2.6156-1.3078 4.7952z" fill="#35393a"/><path d="m272.8865 263.2091h-5.2312l-8.2827-14.8218c0 2.6156.4359 4.3593.4359 5.6671v9.1547h-3.4875v-19.6171h5.2312l8.2828 14.8218v-14.3858h3.9234v19.1811z" fill="#35393a"/><path d="m297.2989 255.7982v7.4109h-4.3589v-19.6171h5.6672a11.5469 11.5469 0 0 1 6.1028 1.308c1.3078.8719 1.7437 2.6156 1.7437 4.3594a6.3 6.3 0 0 1 -.8719 3.0515 6.4073 6.4073 0 0 1 -2.6155 2.18c3.0515 4.3593 4.7952 7.4109 5.6671 8.7187h-4.7953l-4.3594-7.4109zm0-3.0515h1.3078a6.3009 6.3009 0 0 0 3.0515-.8719c.8719-.4359.8719-1.3078.8719-2.18a3.33 3.33 0 0 0 -.8719-2.18c-.4359-.436-1.7437-.436-3.0515-.436h-1.3078z" fill="#35393a"/><path d="m326.9424 263.2091h-11.3343v-19.6171h11.3343v3.488h-6.975v4.3594h6.539v3.4874h-6.539v5.2313h6.975z" fill="#35393a"/><path d="m342.636 263.2091h-4.3594v-16.1291h-5.2311v-3.488h14.8217v3.488h-5.2312z" fill="#35393a"/><path d="m359.2015 255.7982v7.4109h-4.3593v-19.6171h5.6671a11.5467 11.5467 0 0 1 6.1031 1.3078c1.3078.8719 1.7438 2.6156 1.7438 4.3594a6.3009 6.3009 0 0 1 -.8719 3.0515 6.407 6.407 0 0 1 -2.6156 2.18c3.0515 4.3593 4.7953 7.4109 5.6672 8.7187h-4.7953l-4.3594-7.4109zm0-3.0515h1.3078a6.3006 6.3006 0 0 0 3.0515-.8719 3.16 3.16 0 0 0 0-4.3593c-.4359-.436-1.7437-.436-3.0515-.436h-1.3078z" fill="#35393a"/><path d="m388.4091 263.2091h-11.3343v-19.6171h11.3343v3.488h-7.4109v4.3594h6.539v3.4874h-6.539v5.2313h6.975v3.0515z" fill="#35393a"/><path d="m408.4621 263.2091-1.3078-4.7953h-6.975l-1.7437 4.7953h-4.3594l6.975-19.6171h5.2312l6.9749 19.6171zm-2.6156-7.8468c-1.3079-4.3594-2.18-6.539-2.18-6.975s-.4359-.8718-.4359-1.3078c-.436 1.3078-1.3079 3.9235-2.6156 8.2828z" fill="#35393a"/><path d="m427.2072 263.2091h-4.3593v-16.1291h-5.2312v-3.488h14.8218v3.488h-5.2312z" fill="#35393a"/><path d="m36.61 173.8426a10.1763 10.1763 0 0 0 -8.7187 4.3593c-2.18 3.0516-3.0515 7.4109-3.0515 12.6421 0 10.8984 4.3593 16.5655 12.6421 16.5655a42.9426 42.9426 0 0 0 7.4108-.8719c2.18-.8718 4.7953-1.7437 7.4109-2.6156v13.078a38.0546 38.0546 0 0 1 -16.1295 3.0515c-8.7187 0-15.2577-2.6156-20.053-7.4109-4.7953-5.2312-6.975-12.2061-6.975-21.7967a34.7365 34.7365 0 0 1 3.4877-15.6939 27.7164 27.7164 0 0 1 9.5906-10.4624c4.3593-2.6156 9.1546-3.4875 14.8217-3.4875a42.6423 42.6423 0 0 1 17.8733 3.9234l-5.2312 12.2065-6.539-2.6155a33.6453 33.6453 0 0 0 -6.5392-.8719z" fill="#245f49"/><path d="m125.1048 190.4081c0 9.5905-2.18 17.0014-6.9749 22.2326s-11.77 7.4109-20.9249 7.4109-16.1295-2.6156-20.925-7.4109c-4.7953-5.2312-7.4109-12.6421-7.4109-22.2326s2.18-17.0015 6.975-21.7967c4.7953-5.2312 11.77-7.4109 20.9248-7.4109s16.13 2.6156 20.9249 7.4109 7.411 12.2061 7.411 21.7967zm-39.67 0c0 11.3343 3.9234 16.5655 11.77 16.5655 3.9235 0 6.975-1.3078 8.7187-3.9234s3.0516-6.975 3.0516-12.6421-.8719-10.0265-3.0516-12.6421c-1.7437-2.6156-4.7952-3.9235-8.7187-3.9235-7.8466.0001-11.77 5.6675-11.77 16.5656z" fill="#245f49"/><path d="m169.1342 173.8426a10.1763 10.1763 0 0 0 -8.7187 4.3593c-2.18 3.0516-3.0515 7.4109-3.0515 12.6421 0 10.8984 4.3593 16.5655 12.6421 16.5655a42.9449 42.9449 0 0 0 7.4109-.8719c2.18-.8718 4.7952-1.7437 7.4108-2.6156v13.078a38.054 38.054 0 0 1 -16.13 3.0515c-8.7187 0-15.2577-2.6156-20.053-7.4109-4.7948-5.2306-6.9748-12.206-6.9748-21.7966a34.7378 34.7378 0 0 1 3.4874-15.6936 27.7164 27.7164 0 0 1 9.5906-10.4624c4.3593-2.6156 9.1546-3.4875 14.8218-3.4875a42.643 42.643 0 0 1 17.8733 3.9234l-5.2309 12.2061-6.539-2.6155a26.3812 26.3812 0 0 0 -6.539-.8719z" fill="#245f49"/><path d="m257.6288 190.4081c0 9.5905-2.18 17.0014-6.9749 22.2326s-11.77 7.4109-20.9249 7.4109-16.13-2.6156-20.9248-7.4109c-4.7953-5.2312-7.4109-12.6421-7.4109-22.2326s2.18-17.0015 6.975-21.7967c4.7952-5.2312 11.77-7.4109 20.9248-7.4109s16.13 2.6156 20.9248 7.4109c5.2312 4.7952 7.4109 12.2061 7.4109 21.7967zm-39.67 0c0 11.3343 3.9234 16.5655 11.77 16.5655 3.9235 0 6.975-1.3078 8.7187-3.9234s3.0516-6.975 3.0516-12.6421-.8719-10.0265-3.0516-12.6421c-1.7437-2.6156-4.7952-3.9235-8.7187-3.9235-7.8466.0001-11.77 5.6675-11.77 16.5656z" fill="#245f49"/><g fill="#9bb449"><path d="m334.3533 219.6157h-20.4889l-20.9244-40.5419h-.4359c.4359 6.539.8718 11.3343.8718 14.8218v26.156h-13.95v-57.9792h20.4889l20.9248 40.1059h.4359c-.4359-5.6671-.4359-10.4624-.4359-13.95v-26.156h13.95v57.5433z"/><path d="m390.1528 219.6157-3.0515-10.8984h-18.7452l-3.0515 10.8984h-17.0015l18.7452-57.9793h20.9249l19.1811 57.9793zm-6.1028-23.5405-2.6156-9.59c-.4359-2.18-1.3078-4.7953-2.18-8.2828s-1.3078-5.6671-1.7438-6.9749a41.8215 41.8215 0 0 0 -1.3078 6.539c-.8718 3.0515-2.18 9.1546-4.7953 18.3092z"/><path d="m446.8243 219.6157h-15.6936v-44.9012h-13.95v-12.6421h43.5934v12.6421h-13.95z"/><path d="m474.2881 213.0767a7.531 7.531 0 0 1 2.18-5.6672 9.6341 9.6341 0 0 1 12.2062 0 7.531 7.531 0 0 1 2.18 5.6672 8.2873 8.2873 0 0 1 -2.18 5.6671 9.6341 9.6341 0 0 1 -12.2062 0 7.2186 7.2186 0 0 1 -2.18-5.6671z"/><path d="m248.4742 97.1182-17.0014-67.57-21.7967 87.6227h20.0529v22.6691h3.4875v-22.6689h10.0265l-1.7437 7.4109h14.3858v15.6936h3.4875v-15.6936h14.3858l-16.13-64.5182zm-17.0014-52.3122 2.6156 10.0265h-5.2312zm-3.4875 13.514h6.975l1.3078 6.1031h-10.0265zm-2.18 10.0265h11.3347l1.3078 6.1031h-14.3859zm-2.6153 9.5906h16.5655l1.3078 6.103h-19.617zm-2.18 9.5905h21.3607l1.3078 6.1031h-24.4119zm-2.6156 9.5906h26.156l1.3078 6.103h-29.2072zm-3.9235 16.5655 1.7438-6.5391h30.9513l1.7438 6.5391zm54.4918 6.9749h-22.6681l.8718-3.4875h20.9249zm-1.7437-6.9749h-14.8214l-.8718-3.0516h14.8217zm-1.7438-6.975h-14.8213l-.4359-2.18.4359-.8718h14.3861zm-1.7437-6.539h-12.2058l.8719-3.0516h10.8983zm-1.7437-6.975h-9.1547l.8719-3.0515h7.4109zm-1.7433-6.9747h-5.6672l.8718-3.0515h3.9235zm-3.9235-6.539 1.3079-4.3594 1.3078 4.3594z"/><path d="m197.47 117.1711h-11.3344v12.2062h11.3344zm-3.4875 8.7187h-4.3593v-5.2312h4.3593z"/><path d="m171.75 100.6056v-26.592h-30.5156v9.1547h-1.7437v3.4874h1.7437v3.4875h-1.7437v3.4875h1.7437v3.4874h-8.2828l-1.7437-40.1059a9.4814 9.4814 0 0 0 6.1031-8.7187 9.8154 9.8154 0 0 0 -6.975-9.1546l-.8718-17.0014h-3.4875l-.8719 17.0014a9.8153 9.8153 0 0 0 -6.9749 9.1546 9.4814 9.4814 0 0 0 6.1031 8.7187l-1.7438 40.1059h-6.1031v10.4625h-23.54v24.4123h23.54v9.1546h27.9v-8.2828h18.7452v8.2828h42.7215v-32.6951l-21.3609-20.9248zm-54.9277 14.3859h-14.386v3.4874h14.3858v2.6156h-14.3858v3.9234h14.3858v4.3594h-19.6171v-17.4373h19.6171zm5.6671-66.698a5.6672 5.6672 0 1 1 5.6672 5.6672c-3.0518.4359-5.6674-2.1797-5.6674-5.6672zm6.975 49.2606h-2.6156l1.3078-32.2591zm11.77 35.7466v4.7953h-20.9244v-36.6185h20.9248zm21.7967-3.4875h-18.3092v-7.4109h13.95v-3.4874h-13.95v-3.4875h13.95v-3.4874h-13.95v-3.4875h13.95v-3.4875h-13.95v-3.4875h13.95v-3.4875h-13.95v-3.4874h13.95v-3.4875h-13.95v-3.4875h13.95v-3.4876h-13.95v-5.667h23.1045v26.592l-4.7953 3.9234zm14.8218 8.2828h-4.3594v-13.0781h4.3594zm24.4123 0h-20.4889v-16.5655h-11.3343v16.5655h-3.4875v-26.592h35.3107zm-32.6951-30.08 15.2577-14.8218 15.2577 14.8218z"/><path d="m132.5157 104.529h4.3593v3.4875h-4.3593z"/><path d="m124.6689 104.529h4.3593v3.4875h-4.3593z"/><path d="m132.5157 110.6321h4.3593v3.4875h-4.3593z"/><path d="m124.6689 110.6321h4.3593v3.4875h-4.3593z"/><path d="m132.5157 116.7352h4.3593v3.4875h-4.3593z"/><path d="m124.6689 116.7352h4.3593v3.4875h-4.3593z"/><path d="m132.5157 122.8383h4.3593v3.4875h-4.3593z"/><path d="m124.6689 122.8383h4.3593v3.4875h-4.3593z"/><path d="m132.5157 128.5054h4.3593v3.4875h-4.3593z"/><path d="m124.6689 128.5054h4.3593v3.4875h-4.3593z"/><path d="m309.9409 86.22a16.8633 16.8633 0 0 0 -16.5655 13.95h-2.18a13.7714 13.7714 0 0 0 -13.95 13.95 14.0953 14.0953 0 0 0 12.2061 13.95v12.2061h3.4885v-12.2061a14.6455 14.6455 0 0 0 11.3343-8.7187 12.73 12.73 0 0 0 3.9234.8719v20.0529h3.4875v-20.0534a16.5783 16.5783 0 0 0 14.8218-16.5655 16.7628 16.7628 0 0 0 -16.5661-17.4372zm-8.7187 30.0795a10.2612 10.2612 0 0 1 -10.0265 8.2827 10.4624 10.4624 0 0 1 0-20.9248 5.5293 5.5293 0 0 1 2.6156.4359h.436c2.18.4359 3.4875 1.7437 4.7952 3.4875l.436.4359c0 .436.4359.436.4359.8719s.4359.4359.4359.8719 0 .4359.4359.8718c0 .436.436.8719.436 1.3078v2.18a1.9457 1.9457 0 0 1 0 2.1792zm8.7187 0a15.6716 15.6716 0 0 1 -4.7952-.8719v-3.9236a2.6208 2.6208 0 0 0 -.436-1.7438 3.3049 3.3049 0 0 0 -.8718-1.7437 12.8239 12.8239 0 0 0 -6.975-6.539 13.14 13.14 0 0 1 26.1561 1.7437 12.8447 12.8447 0 0 1 -13.0781 13.0781z"/><path d="m177.4169 60.0637a1.5923 1.5923 0 0 0 2.18-.8718 92.9632 92.9632 0 0 1 111.5989-42.2856c42.2856 14.3858 68.0057 57.1073 61.9026 101.5726 0 .8719.4359 1.7438 1.3078 1.7438h.436c.8718 0 1.7437-.436 1.7437-1.3078a96.4664 96.4664 0 0 0 -179.6049-61.0308c-.4359.8718-.4359 1.7437.4359 2.1796z"/><path d="m343.508 122.838 6.975 11.77 11.77-6.539z"/></g></svg>