<svg viewBox="0 0 500 309.9296" xmlns="http://www.w3.org/2000/svg"><path d="m157.8775 155.9689h-7.0284v-34.4728h7.0284zm-3.3469-49.8684a4.0432 4.0432 0 0 1 4.1836 4.1836 4.48 4.48 0 0 1 -4.6856 4.6856 4.1836 4.1836 0 0 1 -4.1836-4.3509 4.44 4.44 0 0 1 4.6856-4.5183" fill="#2f7798"/><path d="m177.624 121.4961.6694 4.0163a17.3921 17.3921 0 0 1 11.212-4.6856c7.3631 0 11.212 4.1835 11.212 12.5507v22.5914h-7.1958v-21.5873c0-5.02-2.0081-7.3631-6.1917-7.3631a14.2094 14.2094 0 0 0 -8.3671 3.5142v25.4362h-7.0285v-34.4728z" fill="#2f7798"/><path d="m221.97 121.4961h9.8732v5.5224h-9.7059v17.9057c0 4.1836 1.5061 5.69 5.1877 5.69a17.169 17.169 0 0 0 4.5182-.6694l1.1714 5.355a23.1312 23.1312 0 0 1 -7.1957 1.1714c-7.1958 0-10.8774-3.5142-10.8774-10.71v-18.91h-5.3549v-5.02l5.857-.3347.3347-7.8651 6.0243-.6694v8.5345z" fill="#2f7798"/><path d="m247.9082 135.72h14.7262a13.0016 13.0016 0 0 0 .3347-2.6775c-.1674-4.3509-2.6775-6.6937-6.6937-6.6937-5.02 0-7.8652 3.6815-8.3672 9.3712m0 4.5183c.3347 6.6937 4.0162 10.3753 10.3753 10.3753a24.33 24.33 0 0 0 8.7018-1.6735l1.6735 5.1877a28.1626 28.1626 0 0 1 -11.212 2.3428c-10.3753 0-16.7344-7.1958-16.7344-17.5711 0-10.8773 6.1917-18.24 16.4-18.24 8.2 0 12.8854 5.02 12.8854 12.7181a20.8314 20.8314 0 0 1 -1.0041 6.6937h-21.0855v.1674z" fill="#2f7798"/><path d="m286.7318 121.4961 1.0041 4.6856c2.0081-2.3428 6.8611-5.3549 11.212-5.3549v6.861c-4.0162 0-8.5345 1.6735-10.71 3.5142v24.7669h-7.0279v-34.4728z" fill="#2f7798"/><path d="m318.6944 121.4961h9.8733v5.5224h-9.7059v17.9057c0 4.1836 1.506 5.69 5.1876 5.69a17.17 17.17 0 0 0 4.5183-.6694l1.1714 5.355a23.1324 23.1324 0 0 1 -7.1958 1.1714c-7.1958 0-10.8773-3.5142-10.8773-10.71v-18.91h-5.355v-5.02l5.857-.3347.3347-7.8651 6.0244-.6694.1673 8.5345z" fill="#307b9e"/><path d="m344.6326 135.72h14.7263a13.0087 13.0087 0 0 0 .3346-2.6775c-.1673-4.3509-2.6775-6.6937-6.6937-6.6937-5.02 0-8.0325 3.6815-8.3672 9.3712m-.1673 4.5183c.3347 6.6937 4.0162 10.3753 10.3753 10.3753a24.33 24.33 0 0 0 8.7018-1.6735l1.6734 5.1877a28.1617 28.1617 0 0 1 -11.212 2.3428c-10.3752 0-16.7343-7.1958-16.7343-17.5711 0-10.8773 6.1917-18.24 16.4-18.24 8.2 0 12.8854 5.02 12.8854 12.7181a20.8314 20.8314 0 0 1 -1.0041 6.6937h-21.0855v.1674z" fill="#2f7798"/><path d="m383.4563 121.4961.6693 4.0163a16.5472 16.5472 0 0 1 10.8774-4.6856c4.3509 0 7.53 1.6734 9.2038 4.8529a17.9961 17.9961 0 0 1 11.8814-4.8529c7.0284 0 10.8773 4.1835 10.8773 12.5507v22.5914h-7.0284v-21.5873c0-5.02-2.0081-7.3631-5.857-7.3631-2.1755 0-5.1876 1.1714-8.0325 3.3468v25.6036h-7.1957v-21.5873c0-5.02-1.8408-7.3631-5.8571-7.3631a12.9269 12.9269 0 0 0 -8.0324 3.5142v25.4362h-7.0285v-34.4728z" fill="#2f7798"/><path d="m447.7161 149.2751a16.0093 16.0093 0 0 0 6.8611 1.5061c5.857 0 9.5386-5.02 9.5386-11.8814 0-7.3631-3.3469-12.216-8.8692-12.216a10.3194 10.3194 0 0 0 -7.6978 3.3468zm-1.5061-27.779.8367 3.8489a15.4083 15.4083 0 0 1 10.3753-4.5182c8.8692 0 14.3916 7.0284 14.3916 17.7383s-7.0285 18.24-16.7344 18.24a18.0983 18.0983 0 0 1 -7.1957-1.6735v14.3916h-7.0284v-48.0271z" fill="#2f7798"/><path d="m490.054 155.9689h-7.0284v-34.4728h7.0284zm-3.3469-49.8684a4.0432 4.0432 0 0 1 4.1836 4.1836 4.48 4.48 0 0 1 -4.6856 4.6856 4.1836 4.1836 0 0 1 -4.1836-4.3509 4.5365 4.5365 0 0 1 4.6856-4.5183" fill="#2f7798"/><g fill="#35b1c9"><path d="m157.0408 195.7966a7.9933 7.9933 0 0 0 3.0122-.6694l.6693 2.1754a8.84 8.84 0 0 1 -4.0162 1.0041c-4.0162 0-6.6937-2.8448-6.6937-7.0284 0-4.3509 2.6775-7.3631 6.861-7.3631a9.9679 9.9679 0 0 1 3.6816.8367l-.6694 2.1755a10.9214 10.9214 0 0 0 -2.8448-.5021c-2.51 0-4.0163 1.8408-4.0163 4.6856-.1673 3.0122 1.3388 4.6857 4.0163 4.6857"/><path d="m166.412 184.0825.3347 1.8408a6.4772 6.4772 0 0 1 4.5183-2.1755v2.6775a7.1657 7.1657 0 0 0 -4.351 1.5061v10.0406h-2.8448v-13.8895z"/><path d="m176.62 189.94h5.8571c0-.3346.1673-.6693.1673-1.004a2.4633 2.4633 0 0 0 -2.6775-2.6775c-2.0081-.1673-3.18 1.3387-3.3469 3.6815m0 1.6735c.1674 2.6775 1.5061 4.1836 4.1836 4.1836a10.0894 10.0894 0 0 0 3.5142-.6694l.6694 2.1754a10.0236 10.0236 0 0 1 -4.5182 1.0041c-4.1836 0-6.6938-2.8448-6.6938-7.0284 0-4.3509 2.51-7.3631 6.6938-7.3631 3.3468 0 5.1876 2.0081 5.1876 5.1876a5.4109 5.4109 0 0 1 -.502 2.6775z"/><path d="m193.5216 196.1313a4.3088 4.3088 0 0 0 2.6775-1.1715v-2.6774c-1.6734-.3347-4.6856-.1674-4.6856 2.0081a1.8053 1.8053 0 0 0 2.0081 1.8408m5.355-1.1715c0 .8368.3347 1.0041.8367 1.0041a1.2541 1.2541 0 0 0 .8367-.1673l.3347 2.0081a5.1661 5.1661 0 0 1 -1.8408.3347 2.23 2.23 0 0 1 -2.3428-1.6735 5.3743 5.3743 0 0 1 -3.6815 1.6735c-2.51 0-4.1836-1.5061-4.1836-3.8489 0-3.6816 3.8489-4.5183 7.53-4.0163v-1.5061c0-1.6734-.6694-2.6774-2.6775-2.6774a9.014 9.014 0 0 0 -3.5142.8367l-.6694-2.0082a9.8032 9.8032 0 0 1 4.5182-1.1714c3.3469 0 5.02 1.6735 5.02 4.6857l-.1673 6.5263z"/><path d="m207.0764 184.0825h4.0163v2.1755h-3.8489v7.1958c0 1.6734.6693 2.3428 2.1754 2.3428a6.017 6.017 0 0 0 1.8408-.3347l.502 2.1754a14.361 14.361 0 0 1 -2.8448.5021c-3.0122 0-4.3509-1.3388-4.3509-4.351v-7.6977h-2.1755v-1.6735l2.3428-.1673.1674-3.1795 2.51-.3347v3.3468z"/><path d="m217.7864 197.972h-2.8448v-13.8895h2.8448zm-1.3387-20.0812a1.5811 1.5811 0 0 1 1.6734 1.6735 1.7557 1.7557 0 0 1 -1.8408 1.8407 1.5809 1.5809 0 0 1 -1.6734-1.6734 1.6743 1.6743 0 0 1 1.8408-1.8408"/><path d="m224.9822 184.0825.3347 1.6735a7.2971 7.2971 0 0 1 4.5182-1.8408q4.5183 0 4.5183 5.02v9.2039h-2.8449v-8.7019q0-3.0122-2.51-3.0122a6.4612 6.4612 0 0 0 -3.3469 1.3388v10.3753h-2.8448v-13.8891l2.1755-.1674z"/><path d="m245.9 188.9355c0-2.0081-1.0041-3.0122-2.6775-3.0122a2.5609 2.5609 0 0 0 -2.51 2.8448c0 2.0082 1.0041 3.0122 2.51 3.0122a2.5939 2.5939 0 0 0 2.6775-2.8448m1.6734 10.8773c0-1.1714-1.0041-1.6734-2.8448-1.6734h-2.8448a2.2209 2.2209 0 0 0 -1.3388 1.8407c0 1.1714 1.3388 1.8408 3.5142 1.8408 2.0081 0 3.5142-.6694 3.5142-2.0081m-4.853-6.1917a1.7065 1.7065 0 0 0 -.8367 1.3387c0 .5021.3347.8368 1.1714.8368h2.8449c2.6775 0 4.5182 1.3387 4.5182 3.8489s-2.8448 4.1835-6.6937 4.1835c-3.6816 0-5.69-1.1714-5.69-3.18 0-1.5061 1.1714-2.51 2.51-3.1795a2.0866 2.0866 0 0 1 -1.0041-1.6734 3.4107 3.4107 0 0 1 1.6734-2.51 4.593 4.593 0 0 1 -3.0121-4.5183c0-3.1795 2.1754-5.02 5.3549-5.02a5.6541 5.6541 0 0 1 3.3469 1.0041 4.7232 4.7232 0 0 1 3.8489-.8367v2.1755a6.5746 6.5746 0 0 0 -2.51.1673 5.4486 5.4486 0 0 1 .6693 2.3428c0 3.18-2.1755 5.02-5.355 5.02-.5019.1673-.6693.1673-.8367 0"/><path d="m264.1405 184.0825h3.0122v2.1755h-3.0122v17.069h-2.8448v-17.069h-2.1757v-1.8408l2.1755-.1673v-1.1714c0-3.0122 2.3428-5.1877 6.1917-5.1877a22.3976 22.3976 0 0 1 5.02.6694v19.4118h-2.8449v-17.571a8.8883 8.8883 0 0 0 -2.3428-.1674c-2.1754 0-3.3468.8368-3.3468 3.0122l.1673.8367z"/><path d="m279.5361 189.94h5.857c0-.3346.1673-.6693.1673-1.004a2.4632 2.4632 0 0 0 -2.6775-2.6775c-2.0081-.1673-3.18 1.3387-3.3468 3.6815m0 1.6735c.1673 2.6775 1.6734 4.1836 4.1836 4.1836a10.09 10.09 0 0 0 3.5142-.6694l.6693 2.1754a10.0236 10.0236 0 0 1 -4.5182 1.0041c-4.1836 0-6.6938-2.8448-6.6938-7.0284 0-4.3509 2.51-7.3631 6.6938-7.3631 3.3468 0 5.1876 2.0081 5.1876 5.1876a5.4109 5.4109 0 0 1 -.502 2.6775z"/><path d="m303.466 197.972h-3.347l-3.514-5.02-3.347 5.02h-3.347l5.188-7.028-4.686-6.861h3.347l2.845 4.852 3.012-4.852h3.347l-4.685 6.861z"/><path d="m309.3232 197.972h-2.8448v-13.8895h2.8448zm-1.3388-20.0812a1.5811 1.5811 0 0 1 1.6735 1.6735 1.7557 1.7557 0 0 1 -1.8408 1.8407 1.5809 1.5809 0 0 1 -1.6734-1.6734c-.1674-1.1714.6693-1.8408 1.8407-1.8408"/><path d="m319.6985 186.258a7.0156 7.0156 0 0 0 -2.6775.6694v8.5345a5.5875 5.5875 0 0 0 2.51.502c2.6775 0 4.0162-1.6734 4.0162-4.853 0-2.8448-1.3387-4.8529-3.8488-4.8529m-2.51-8.3672v6.8611a8.2648 8.2648 0 0 1 2.6775-.8367h1.6735c3.1795.502 5.02 3.1795 5.02 7.0284 0 4.5183-2.6775 7.3631-7.1958 7.3631a9.9789 9.9789 0 0 1 -5.1877-1.5061v-18.5751z"/><path d="m330.408 178.226v19.746h3.013v-20.081z"/><path d="m340.2817 189.94h5.857c0-.3346.1674-.6693.1674-1.004a2.4633 2.4633 0 0 0 -2.6775-2.6775c-2.0081-.1673-3.18 1.3387-3.3469 3.6815m0 1.6735c.1674 2.6775 1.5061 4.1836 4.1836 4.1836a10.09 10.09 0 0 0 3.5142-.6694l.6694 2.1754a10.0237 10.0237 0 0 1 -4.5183 1.0041c-4.1836 0-6.6937-2.8448-6.6937-7.0284 0-4.3509 2.51-7.3631 6.6937-7.3631 3.3469 0 5.1877 2.0081 5.1877 5.1876a5.4107 5.4107 0 0 1 -.5021 2.6775z"/><path d="m378.938 184.083-4.351 13.889h-3.179l-3.013-9.204-2.844 9.204h-3.347l-4.184-13.889h3.012l3.012 10.877.502-1.674 2.678-9.036h2.51l2.678 9.036.502 1.674 3.012-10.877z"/><path d="m391.3214 191.111c0-3.18-1.3387-5.02-3.6815-5.02-2.1755 0-3.5143 2.0081-3.5143 4.8529 0 3.1795 1.3388 5.1877 3.6816 5.1877s3.5142-2.0082 3.5142-5.02m-10.2079 0c0-4.351 2.6775-7.3632 6.6937-7.3632s6.5264 2.8449 6.5264 7.0285c0 4.3509-2.6775 7.3631-6.6937 7.3631-4.0163.1673-6.5264-2.6775-6.5264-7.0284"/><path d="m400.5253 184.0825.3347 1.8408a6.4772 6.4772 0 0 1 4.5182-2.1755v2.6775a7.1656 7.1656 0 0 0 -4.3509 1.5061v10.0406h-2.8448v-13.8895z"/><path d="m411.57 177.891v13.053l5.355-6.861h3.179l-4.35 5.857 4.852 8.032h-3.346l-3.682-6.192-2.008 2.343v3.849h-2.845v-19.746z"/><path d="m423.4513 195.1272a9.9679 9.9679 0 0 0 3.6816.8367c1.5061 0 2.51-.3347 2.51-1.5061 0-1.004-.8367-1.5061-2.51-2.1754l-1.004-.5021c-2.0081-.8367-3.18-2.0081-3.18-3.8489 0-2.6775 2.1754-4.1836 5.02-4.1836a8.4547 8.4547 0 0 1 4.0162.8368l-.502 2.1754a9.1033 9.1033 0 0 0 -3.3469-.6693c-1.3387 0-2.3428.502-2.3428 1.506 0 .8368.5021 1.3388 2.3428 2.1755l1.1714.502c2.1755.8368 3.18 2.0082 3.18 4.0163 0 2.3428-1.6735 4.0162-5.02 4.0162a10.0249 10.0249 0 0 1 -4.5183-1.004z"/><path d="m439.0143 195.2945a6.4708 6.4708 0 0 0 2.8448.6694c2.3428 0 3.8489-2.0081 3.8489-4.8529 0-3.0122-1.3387-4.853-3.5142-4.853a3.6768 3.6768 0 0 0 -3.0122 1.3387v7.6978zm-.6694-11.212.3347 1.5061a6.12 6.12 0 0 1 4.1836-1.8408c3.5142 0 5.857 2.8449 5.857 7.1958s-2.8449 7.3631-6.6938 7.3631a7.8833 7.8833 0 0 1 -2.8448-.6694v5.8571h-3.0122v-19.2444l2.1755-.1674z"/><path d="m456.0833 196.1313a4.3091 4.3091 0 0 0 2.6775-1.1715v-2.6774c-1.6735-.3347-4.6856-.1674-4.6856 2.0081a1.8993 1.8993 0 0 0 2.0081 1.8408m5.5223-1.1715c0 .8368.3347 1.0041.8367 1.0041a1.2544 1.2544 0 0 0 .8368-.1673l.3347 2.0081a5.1666 5.1666 0 0 1 -1.8408.3347 2.23 2.23 0 0 1 -2.3428-1.6735 5.3745 5.3745 0 0 1 -3.6816 1.6735c-2.51 0-4.1836-1.5061-4.1836-3.8489 0-3.6816 3.8489-4.5183 7.5305-4.0163v-1.5061c0-1.6734-.6694-2.6774-2.6775-2.6774a9.014 9.014 0 0 0 -3.5142.8367l-.6694-2.0082a9.8033 9.8033 0 0 1 4.5183-1.1714c3.3468 0 5.02 1.6735 5.02 4.6857v6.5265z"/><path d="m472.65 195.7966a7.9924 7.9924 0 0 0 3.0122-.6694l.6694 2.1754a8.84 8.84 0 0 1 -4.0163 1.0041c-4.0162 0-6.6937-2.8448-6.6937-7.0284 0-4.3509 2.6775-7.3631 6.8611-7.3631a9.9684 9.9684 0 0 1 3.6816.8367l-.6694 2.1755a10.9215 10.9215 0 0 0 -2.8449-.5021c-2.51 0-4.0162 1.8408-4.0162 4.6856-.1673 3.0122 1.3388 4.6857 4.0162 4.6857"/><path d="m481.6868 189.94h5.857c0-.3346.1674-.6693.1674-1.004a2.4633 2.4633 0 0 0 -2.6775-2.6775c-2.0081-.1673-3.18 1.3387-3.3469 3.6815m0 1.6735c.1674 2.6775 1.6735 4.1836 4.1836 4.1836a10.09 10.09 0 0 0 3.5142-.6694l.6694 2.1754a10.0237 10.0237 0 0 1 -4.5183 1.0041c-4.1836 0-6.6937-2.8448-6.6937-7.0284 0-4.3509 2.51-7.3631 6.6937-7.3631 3.3469 0 5.1877 2.0081 5.1877 5.1876a5.4107 5.4107 0 0 1 -.5021 2.6775z"/><path d="m39.064 181.238 10.71-58.236 69.949 19.412-12.383 41.501z"/></g><path d="m100.479 137.561v-26.775h-87.688v87.688h87.688v-12.216-2.51" fill="none"/><path d="m104.16 135.72v-28.615h-95.051v95.051h95.051v-16.065l-3.681-.168v12.551h-87.688v-87.688h87.688v23.93" fill="#2f7798"/></svg>