<svg id="Ebene_1" data-name="Ebene 1" xmlns="http://www.w3.org/2000/svg" viewBox="0 0 500 309.9296"><defs><style>.cls-1{fill:#7e9c17;}</style></defs><title>logo-kiezbuero</title><polygon class="cls-1" points="192.899 163.378 58.154 163.378 58.154 188.336 192.899 188.336 192.899 188.336 200.588 188.336 200.588 58.38 192.899 58.38 192.899 163.378"/><path class="cls-1" d="M249.7464,86.7411a5.5451,5.5451,0,0,0-1.8908-1.0084l1.5126-1.0084,1.5126-1.5126,21.3021-24.0751h-6.4284a4.5385,4.5385,0,0,0-2.0168.3781,5.9247,5.9247,0,0,0-1.6386,1.3866l-18.6551,21.05a4.6631,4.6631,0,0,1-1.6386,1.26,6.1755,6.1755,0,0,1-2.3949.3782h-2.8991V59.0106h-7.5629v55.9652h7.5629V89.3881h5.0419l1.1345.3781.8823.5042.7563.7563,19.2853,22.1844.63.63.63.5042.8823.2521h7.815L251.511,88.5058Z"/><rect class="cls-1" x="282.0146" y="75.3968" width="6.9326" height="39.5538"/><path class="cls-1" d="M282.0146,66.4474a5.17,5.17,0,0,0,1.5126,1.1344,4.5377,4.5377,0,0,0,1.8907.3781,4.7888,4.7888,0,0,0,1.8908-.3781,5.0418,5.0418,0,0,0,1.6386-1.1344,5.4212,5.4212,0,0,0,1.1344-1.5126,4.4121,4.4121,0,0,0,.3781-1.8907,4.662,4.662,0,0,0-.3781-1.8907,5.2944,5.2944,0,0,0-1.1344-1.6387,5.0433,5.0433,0,0,0-1.6386-1.1344,4.7888,4.7888,0,0,0-1.8908-.3781,4.662,4.662,0,0,0-1.8907.3781,5.17,5.17,0,0,0-1.5126,1.1344,5.0426,5.0426,0,0,0-1.1344,1.6387,4.9163,4.9163,0,0,0-.3781,1.8907,4.5377,4.5377,0,0,0,.3781,1.8907A5.1688,5.1688,0,0,0,282.0146,66.4474Z"/><path class="cls-1" d="M330.417,112.2028a13.2384,13.2384,0,0,0,3.0252-2.7731l-1.8908-2.5209a1.5123,1.5123,0,0,0-1.3865-.63,3.0248,3.0248,0,0,0-1.6386.63l-2.2688,1.26-3.2773,1.26a14.8736,14.8736,0,0,1-4.5377.63,13.3619,13.3619,0,0,1-5.0419-.8824,10.3357,10.3357,0,0,1-3.9075-2.773,13.3616,13.3616,0,0,1-2.521-4.6638,21.8067,21.8067,0,0,1-1.0084-6.5545h26.344a1.5126,1.5126,0,0,0,1.3866-.5042,4.5384,4.5384,0,0,0,.3781-2.1428,21.43,21.43,0,0,0-1.2605-7.5629,15.6306,15.6306,0,0,0-3.4033-5.5461,14.7476,14.7476,0,0,0-5.168-3.4032,17.645,17.645,0,0,0-6.5545-1.1345,19.16,19.16,0,0,0-7.6889,1.5126,16.7636,16.7636,0,0,0-5.7982,4.16,18.2763,18.2763,0,0,0-3.6554,6.1763,23.0668,23.0668,0,0,0-1.2605,7.689,26.8461,26.8461,0,0,0,1.3866,9.0754,18.655,18.655,0,0,0,3.9075,6.6805,16.5119,16.5119,0,0,0,5.9242,4.0336,20.1681,20.1681,0,0,0,7.5629,1.3865l4.2856-.3781a24.3322,24.3322,0,0,0,4.2856-1.1345A19.1594,19.1594,0,0,0,330.417,112.2028ZM309.8712,82.8336a11.9746,11.9746,0,0,1,12.1006-2.1428A8.6966,8.6966,0,0,1,325.123,82.96a9.8293,9.8293,0,0,1,1.8907,3.5293,14.1156,14.1156,0,0,1,.63,4.4117H306.2158a13.7394,13.7394,0,0,1,3.6554-8.0671Z"/><path class="cls-1" d="M370.2482,81.0689a4.9149,4.9149,0,0,0,.7562-1.26,3.7811,3.7811,0,0,0,.2521-1.3866V75.3968H341.8874v5.5461H363.19l-21.5542,28.7389a5.1651,5.1651,0,0,0-.7563,1.2605,3.5254,3.5254,0,0,0-.2521,1.1344v2.8991h29.7473v-5.42H348.82Z"/><path class="cls-1" d="M262.2251,158.9665a19.4138,19.4138,0,0,0,4.4117-2.2688,12.8566,12.8566,0,0,0,3.0251-2.7731,10.8393,10.8393,0,0,0,1.7647-3.2773,12.4778,12.4778,0,0,0,.5042-3.6553,16.3855,16.3855,0,0,0-1.1345-6.3024,11.7213,11.7213,0,0,0-3.7814-4.79,19.1588,19.1588,0,0,0-6.8066-3.0252,39.8322,39.8322,0,0,0-10.0838-1.1344h-20.924v56.8476h22.6887a29.1172,29.1172,0,0,0,9.0754-1.26,19.5376,19.5376,0,0,0,6.68-3.6553,15.5027,15.5027,0,0,0,4.16-5.42,16.26,16.26,0,0,0,1.3865-6.8066,11.47,11.47,0,0,0-2.647-7.815A15.63,15.63,0,0,0,262.2251,158.9665Zm-19.79-17.5206h7.6889a18.3992,18.3992,0,0,1,3.9075.3781,6.554,6.554,0,0,1,2.647,1.1344,4.79,4.79,0,0,1,1.5126,2.1428,9.707,9.707,0,0,1,.5042,3.4034,8.0668,8.0668,0,0,1-.63,3.4033,5.0424,5.0424,0,0,1-1.8907,2.1428,8.1925,8.1925,0,0,1-3.0251,1.1344l-3.9075.2521H242.31ZM259.83,173.7141a5.7983,5.7983,0,0,1-1.26,2.3949,6.8071,6.8071,0,0,1-2.647,1.7647,11.722,11.722,0,0,1-4.2857.63H242.31V164.2605h9.2015a15.3808,15.3808,0,0,1,4.16.5042,6.8066,6.8066,0,0,1,2.647,1.3866,4.6634,4.6634,0,0,1,1.3865,2.1428,8.9483,8.9483,0,0,1,.3781,2.7731,10.4551,10.4551,0,0,1-.252,2.6469Z"/><path class="cls-1" d="M305.0814,176.7393a13.8684,13.8684,0,0,1-3.4033,2.2688,8.5723,8.5723,0,0,1-3.7815.8824,4.9161,4.9161,0,0,1-4.0335-1.6386,7.0585,7.0585,0,0,1-1.3865-4.6638V147.8743H280.376v25.7138a20.1658,20.1658,0,0,0,.8823,6.1763,13.9926,13.9926,0,0,0,2.647,4.9159,12.1013,12.1013,0,0,0,4.2856,3.2772,14.2434,14.2434,0,0,0,5.9243,1.1345,16.2588,16.2588,0,0,0,3.6554-.3782l3.0251-1.0083,2.647-1.5126,2.3949-2.0168.7563,2.3949a2.8992,2.8992,0,0,0,3.0252,2.0168h7.4368V147.8743H304.9553Z"/><path class="cls-1" d="M357.7694,152.16a16.0076,16.0076,0,0,0-5.7982-3.6553,22.4357,22.4357,0,0,0-15.756.3781,18.6549,18.6549,0,0,0-10.21,10.7141,21.4253,21.4253,0,0,0-1.3865,7.6889,25.3347,25.3347,0,0,0,1.6386,9.4536,19.4112,19.4112,0,0,0,4.4117,6.8066,18.2759,18.2759,0,0,0,6.5545,4.16,22.6885,22.6885,0,0,0,7.941,1.3866l4.4116-.2522a24.2,24.2,0,0,0,4.5378-1.0083,21.0447,21.0447,0,0,0,4.4116-2.1429,18.0223,18.0223,0,0,0,4.0336-3.5293l-3.5293-4.2856a2.5212,2.5212,0,0,0-2.1429-1.0084,4.5374,4.5374,0,0,0-2.1428.5042l-2.1428,1.1344-2.7731,1.1345a11.4689,11.4689,0,0,1-3.6554.5041,9.2013,9.2013,0,0,1-6.4284-2.2688q-2.5211-2.2689-3.0252-7.3108h23.3189l1.3865-.2521a1.6383,1.6383,0,0,0,.8824-.7563,3.5289,3.5289,0,0,0,.3781-1.3865,17.0336,17.0336,0,0,0,.1261-2.2688,21.4285,21.4285,0,0,0-1.3866-7.815A16.64,16.64,0,0,0,357.7694,152.16Zm-20.924,11.0922a10.21,10.21,0,0,1,2.521-5.6721,7.31,7.31,0,0,1,5.42-2.0168,7.564,7.564,0,0,1,3.2773.63,6.1764,6.1764,0,0,1,2.2688,1.7647,6.8055,6.8055,0,0,1,1.2605,2.3949,10.71,10.71,0,0,1,.3781,2.7731Z"/><path class="cls-1" d="M387.2646,149.1348a19.7907,19.7907,0,0,0-5.0419,5.42l-.63-3.7814a7.935,7.935,0,0,0-.3782-1.3865,2.1417,2.1417,0,0,0-.63-.8824L379.5757,148h-8.6973v40.4614H382.979V163.5042q2.7731-5.0418,7.4368-5.0419h3.7815a2.142,2.142,0,0,0,1.26-.3781,1.7648,1.7648,0,0,0,.63-1.1344L397.6006,148a6.9332,6.9332,0,0,0-4.4117-1.3866A10.21,10.21,0,0,0,387.2646,149.1348Z"/><path class="cls-1" d="M440.3308,159.3447a18.6562,18.6562,0,0,0-4.16-6.5545,18.4044,18.4044,0,0,0-6.5545-4.16,23.4452,23.4452,0,0,0-8.4452-1.3865,23.6971,23.6971,0,0,0-8.4453,1.3865,18.7816,18.7816,0,0,0-6.5545,4.16,18.4025,18.4025,0,0,0-4.2856,6.5545,23.57,23.57,0,0,0-1.5126,8.6973,24.0738,24.0738,0,0,0,1.5126,8.6973,18.53,18.53,0,0,0,4.2856,6.5545,18.9082,18.9082,0,0,0,6.5545,4.16,23.3183,23.3183,0,0,0,8.4453,1.5126,23.0639,23.0639,0,0,0,8.4452-1.5126,18.528,18.528,0,0,0,6.5545-4.16,18.78,18.78,0,0,0,4.16-6.5545,24.0758,24.0758,0,0,0,1.5125-8.6973A23.57,23.57,0,0,0,440.3308,159.3447Zm-12.983,17.6467a6.9325,6.9325,0,0,1-6.1763,2.8991,7.0588,7.0588,0,0,1-6.3024-2.8991q-2.0168-2.8991-2.0168-8.9494t2.0168-8.9494a7.0586,7.0586,0,0,1,6.3024-2.8991,6.9323,6.9323,0,0,1,6.1763,2.8991q2.0168,2.899,2.0168,8.9494t-2.0168,9.0754Z"/><path class="cls-1" d="M78.1952,246.3177l-.63.2521-1.3865,1.0084-1.3865.7563-1.6386.3781H71.1365a8.9474,8.9474,0,0,1-3.5293-.63,7.8139,7.8139,0,0,1-2.7731-2.0168,9.3261,9.3261,0,0,1-1.8907-3.1512,12.2273,12.2273,0,0,1-.63-4.2856,12.1,12.1,0,0,1,.63-4.16,9.0758,9.0758,0,0,1,1.8907-3.1512,8.3182,8.3182,0,0,1,2.8991-2.0167,9.7051,9.7051,0,0,1,3.7814-.7563h2.0168l1.5126.3781,1.1344.5042.8824.5042.63.3781h1.0084l.2521-.2521,1.1344-1.6386a11.5962,11.5962,0,0,0-8.4452-3.2773,13.7384,13.7384,0,0,0-5.168,1.0084,11.721,11.721,0,0,0-4.0335,2.647,11.9737,11.9737,0,0,0-2.6471,4.16,14.3707,14.3707,0,0,0-.8823,5.294,15.3791,15.3791,0,0,0,.8823,5.294,11.9752,11.9752,0,0,0,2.3949,4.16,10.84,10.84,0,0,0,3.7815,2.647A12.6038,12.6038,0,0,0,71.01,251.36a12.8571,12.8571,0,0,0,5.42-1.0084,10.8408,10.8408,0,0,0,3.7815-2.7731l-1.3866-1.5126Z"/><path class="cls-1" d="M123.1943,229.5533a11.4719,11.4719,0,0,0-3.9075-2.647,14.118,14.118,0,0,0-10.21,0,11.4719,11.4719,0,0,0-3.9075,2.647,12.1,12.1,0,0,0-2.5209,4.16,15.63,15.63,0,0,0,0,10.462,11.9745,11.9745,0,0,0,2.5209,4.1595,11.4691,11.4691,0,0,0,3.9075,2.647,14.2432,14.2432,0,0,0,10.21,0,11.4691,11.4691,0,0,0,3.9075-2.647,11.9763,11.9763,0,0,0,2.521-4.1595,15.631,15.631,0,0,0,0-10.462A12.1013,12.1013,0,0,0,123.1943,229.5533Zm-.7563,13.4872a8.8233,8.8233,0,0,1-1.7647,3.1512,7.6881,7.6881,0,0,1-2.8991,2.0167,10.4609,10.4609,0,0,1-7.4368,0,7.8156,7.8156,0,0,1-2.8991-2.0167,8.823,8.823,0,0,1-1.7646-3.1512,14.1163,14.1163,0,0,1,0-8.4452,8.8213,8.8213,0,0,1,1.7646-3.1512,7.9406,7.9406,0,0,1,2.8991-2.0168,10.3359,10.3359,0,0,1,7.4368,0,7.8139,7.8139,0,0,1,2.8991,2.0168,8.8216,8.8216,0,0,1,1.7647,3.1512A14.1178,14.1178,0,0,1,122.438,243.0405Z"/><path class="cls-1" d="M179.16,226.4021a1.1351,1.1351,0,0,0-.3781.63l-5.294,17.6467-.2521,1.0084-.2521,1.1344a17.2672,17.2672,0,0,0-.63-2.1429l-5.9242-17.6467-.3782-.63-.7563-.2521h-1.0083l-.7563.2521-.3781.5042-5.9243,17.6467-.2521,1.0084-.2521,1.1344-.2521-1.1344-.2522-1.0084-5.294-17.6467a1.1345,1.1345,0,0,0-.3781-.63l-.7563-.2521h-2.899l7.941,25.4617h3.0251l6.4285-19.4113v-1.2605l.3781,1.2605,6.4285,19.4113h3.5293l7.941-25.4617h-2.647Z"/><path class="cls-1" d="M224.4107,229.5533a11.4719,11.4719,0,0,0-3.9075-2.647,14.1177,14.1177,0,0,0-10.21,0,11.4719,11.4719,0,0,0-3.9075,2.647,12.1007,12.1007,0,0,0-2.521,4.16,15.63,15.63,0,0,0,0,10.462,11.9732,11.9732,0,0,0,2.521,4.1595,11.4691,11.4691,0,0,0,3.9075,2.647,14.2429,14.2429,0,0,0,10.21,0,11.4691,11.4691,0,0,0,3.9075-2.647,11.9732,11.9732,0,0,0,2.521-4.1595,15.63,15.63,0,0,0,0-10.462A12.1,12.1,0,0,0,224.4107,229.5533Zm-.7563,13.4872a8.823,8.823,0,0,1-1.7646,3.1512,7.6881,7.6881,0,0,1-2.8991,2.0167,10.4609,10.4609,0,0,1-7.4368,0,7.8148,7.8148,0,0,1-2.8991-2.0167,8.8248,8.8248,0,0,1-1.7647-3.1512,14.1178,14.1178,0,0,1,0-8.4452,8.8231,8.8231,0,0,1,1.7647-3.1512,7.94,7.94,0,0,1,2.8991-2.0168,10.3359,10.3359,0,0,1,7.4368,0,7.8139,7.8139,0,0,1,2.8991,2.0168,8.8213,8.8213,0,0,1,1.7646,3.1512A14.1163,14.1163,0,0,1,223.6544,243.0405Z"/><path class="cls-1" d="M262.8553,240.3935a9.7064,9.7064,0,0,0,2.6471-1.0084,7.4373,7.4373,0,0,0,2.0167-1.6386,6.68,6.68,0,0,0,1.2605-2.1428,7.31,7.31,0,0,0,.3781-2.521,7.4383,7.4383,0,0,0-.5041-2.8991,5.6719,5.6719,0,0,0-1.6387-2.2688,7.94,7.94,0,0,0-2.899-1.3866,15.6378,15.6378,0,0,0-4.16-.5042h-7.1848v25.4617h3.4034v-10.588H259.83l.63.63,6.5545,9.0754a1.5124,1.5124,0,0,0,1.3865.7563h3.0252L263.99,241.2759A3.6535,3.6535,0,0,0,262.8553,240.3935Zm-3.1512-1.8908h-3.6553v-9.58H259.83a7.185,7.185,0,0,1,4.4117,1.1344,4.0338,4.0338,0,0,1,1.5126,3.4033,5.168,5.168,0,0,1-.3782,2.0168,4.2848,4.2848,0,0,1-1.1344,1.6386,5.4209,5.4209,0,0,1-1.8907,1.0084A8.8217,8.8217,0,0,1,259.7041,238.5027Z"/><path class="cls-1" d="M306.09,238.7549l-.8824-.5042.7563-.5042.7563-.63,9.7057-10.9661h-3.9075l-.7563.63-8.4452,9.58-.7563.63h-2.3949V225.898h-3.4033V251.36h3.4033V239.7633h2.7731l.3781.2521.3781.3781,8.8234,10.0838.2521.2521.2521.2522h4.0335L306.9721,239.007Z"/><rect class="cls-1" x="340.879" y="226.15" width="3.4033" height="25.3986"/><path class="cls-1" d="M388.399,244.1749v.8823a2.1459,2.1459,0,0,0,.126.8824L373.7775,226.78l-.5042-.5042h-2.395v25.4617h2.8992V231.8222l14.7476,19.1593.5042.5042h2.3949V226.15H388.399Z"/><path class="cls-1" d="M430.2469,241.2758a.63.63,0,0,0,.2521.5042l.5043.2521h3.9074v5.5461l-1.3865.63-1.3865.5042-1.6386.2521h-1.8907a9.9563,9.9563,0,0,1-3.7814-.63,8.3176,8.3176,0,0,1-2.8991-2.0168,9.0725,9.0725,0,0,1-1.8907-3.1512,14.4565,14.4565,0,0,1,0-8.4452,8.9491,8.9491,0,0,1,1.8907-3.1512,8.1922,8.1922,0,0,1,2.8991-2.0167,10.3347,10.3347,0,0,1,3.9074-.7563l2.521.2521,1.8907.5042,1.3865.63,1.0083.63.63.2521a.8823.8823,0,0,0,.7562-.5042l1.0084-1.5126-1.7647-1.3865-2.0167-1.0084-2.395-.63-2.773-.2521a14.7472,14.7472,0,0,0-5.42.8824,11.3441,11.3441,0,0,0-6.68,6.8066,14.7477,14.7477,0,0,0-.8824,5.294,14.3687,14.3687,0,0,0,.8824,5.294,12.1,12.1,0,0,0,2.647,4.16,11.5967,11.5967,0,0,0,3.9074,2.647,13.2355,13.2355,0,0,0,5.0419,1.0084h2.8991l2.521-.5042,2.2688-.8824,2.0168-1.26v-9.7057h-7.815Z"/></svg>