<svg enable-background="new -14.195 0.083 302 129" height="129" viewBox="-14.195 .083 302 129" width="302" xmlns="http://www.w3.org/2000/svg"><path d="m5.625 61.268h1.475c1.241 5.375 4.278 8.062 9.111 8.062 1.964 0 3.692-.58 5.183-1.74 1.489-1.174 2.252-2.595 2.287-4.264.03-1.485-.494-2.624-1.572-3.416-1.063-.806-2.651-1.521-4.764-2.143l-4.805-1.357c-1.89-.552-3.417-1.521-4.58-2.907-1.163-1.385-1.723-3.118-1.68-5.197.05-2.391.951-4.32 2.705-5.792 1.771-1.471 3.952-2.205 6.546-2.205 2.803 0 5.171.721 7.107 2.162l1.848-1.738h.894l-.167 8.062h-1.473c-.246-2.149-1.127-3.918-2.645-5.305-1.502-1.385-3.422-2.078-5.757-2.078-1.659 0-3.11.474-4.354 1.421-1.228.933-1.855 2.086-1.883 3.458-.022 1.033.243 1.846.795 2.44.566.594 1.492 1.061 2.773 1.399l6.606 1.824c2.482.679 4.32 1.783 5.514 3.31 1.192 1.528 1.766 3.409 1.719 5.644-.057 2.758-1.07 5.036-3.04 6.831-1.954 1.797-4.494 2.693-7.619 2.695-1.611 0-3.087-.257-4.431-.766-1.342-.521-2.258-1.003-2.748-1.441l-2.332 1.823h-.894z"/><path d="m42.418 59.771c-.459 1.16-1.178 2.058-2.158 2.694-.979.637-2.202.954-3.668.954-2.143 0-3.562-.269-4.26-.806-.682-.552-1.017-1.464-1.007-2.737l.006-.254.25-12.113h-3.141l.026-1.316h3.142l.113-5.431-.006.255c1.063 0 2.829-.085 5.298-.255l-.113 5.431h4.639l-.026 1.316h-4.64l-.253 12.22c-.028 1.33.587 1.995 1.843 1.995.758 0 1.365-.205 1.825-.615.477-.425.858-1.012 1.148-1.761z"/><path d="m28.556 65.918h13.145l-.049 2.354h-13.145z"/><path d="m244.602 28.605c1.739 2.102 12.479 2.026 18.955-2.232-5.86 6.652-9.847 17.209-10.92 20.825 29.771-16.581 13.812 45.691-8.078 51.264-5.027 1.279-28.862 1.841 7.825-42.264 0 0-6.364 10.629-9.766 20.277-16.5 63.618 56.092-58.443.25-20.421 2.333-4.428 1.962-8.138 8.676-22.261 0 0-2.155.33-6.162-.36-17.198 42.907-23.255 20.242-23.692 16.877-5.739 8.528-13.072 1.679-7.299.523 0 0 3.873 3.732 6.892-5.083.175-1.879 1.366-17.048 3.981-25.223.627-2.116 5.405-16.497 15.914-17.004 2.361 0 4.42 2.264 4.34 4.526-.701 16.028-12.652 28.812-19.441 36.883-.2 2.148-.271 3.363.99 5.816 4.342 8.326 17.535-22.143 17.535-22.143m-18.268 11.491c-.627 5.238 18.625-27.5 8.366-30.672-.233 0-5.598 7.554-8.366 30.672"/><path d="m166.19 52.807c-.608 2.002-3.644 16.633-3.476 19.167-.102 8.781 7.409 2.204 8.447.684.719-5.252.756-17.491 1.601-22.529.625-5.592 1.621-12.521 3.111-17.182.646-2.182 4.62-16.524 15.45-17.047 4.488-.563 5.132 8.077 5.051 10.41-.387 8.825-7.245 15.983-12.438 22.805.107-.056 7.371-5.187 7.832 1.736.324 3.244-3.674 17.315-2.261 17.146.31-.513 2.792-1.632 7.741-18.284l6.909-4.667c-6.316 7.822.533 33.451 7.226 8.106-2.736-.874-5.91-3.134-7.105-5.055-1.729-2.779 11.715-16.221 14.455-8.947.744 1.976-1.766 11.542-1.766 11.542-6.269 22.24-16.224 18.08-18.31 16.854-1.859-1.08-1.865-4.678-2.33-6.371-8.566 23.099-16.965 19.149-10.903-2.753 1.235-5.147-4.459-3.686-6.32-1.959-2.649 2.611-3.047 17.111-3.763 21.734l-5.137 2.395c.249-2.206.249-2.515.471-4.521 0 0-7.52 6.851-13.27 6.556-1.68-.572-2.039-2.451-2.125-4.167-.168-2.534 2.572-11.852 2.717-12.915l-1.572-.089c-14.627 28.127-34.93 34.009-31.811 16.227-.4.125-2.519.256-3.337.115-23.368 48.133-26.417 4.658-17.229-25.309.702-2.37 6.055-18.47 17.818-19.037 2.646 0 4.948 2.533 4.86 5.066-.785 17.946-13.659 31.322-21.262 40.357-1.468 25.317 6.635 10.743 11.839-4.249-3.483-5.148 7.1-8.977 7.1-8.977-4.969 7.492.707 6.703 1.232 6.969 3.059-16.154 10.966-19.743 15.923-18.296 9.68 12.844-11.206 22.156-11.206 22.156-1.486 14.825 14.408 1.514 22.211-15.481-.663-.099-.907-.221-1.575-.524-2.769-1.227-2.886-4.627-2.551-4.898 0 0 4.543-5.344 6.129-5.344 1.029 1.103 3.389 5.555 2.935 8.42.313.046.626.07.936.069.299-1.597 1.063-4.926 1.91-6.728zm11.09-.455c-.653 5.465 19.434-28.692 8.729-32.002-.243 0-5.842 7.881-8.729 32.002m-71.207 24.763c-.711 5.937 21.108-31.166 9.481-34.761-.263 0-6.345 8.562-9.481 34.761m108.371-38.833c-.526.66-10.599 9.01-2.914 12.66 2.812-4.614 2.771-12.175 2.914-12.66m-83.641 36.545c.747-.833 13.423-7.018 4.886-14.775-4.314 4.626-4.662 14.148-4.886 14.775"/><path d="m73.238 120.449c7.194-7.48 36.197-66.923 2.21-82.045-1.277-.403-19.005 18.484-19.941 28.393l-10.512 5.893c9.91-33.89 36.793-41.203 40.593-40.002 26.375 9.648 8.514 98.479-23.364 92.922-4.589-1.272-8.384-5.645-9.199-10.687-1.837-11.409-3.416-36.292 14.152-51.129 12.274-9.865 12.264-8.129 12.264-8.129-25.978 24.313-16.84 75.514-6.203 64.784"/><path d="m244.416 59.171-152.3 55.435-4.552 9.561z"/></svg>