<svg id="Layer_1" data-name="Layer 1" xmlns="http://www.w3.org/2000/svg" xmlns:xlink="http://www.w3.org/1999/xlink" viewBox="0 0 600 600"><defs><style>.cls-1{fill:none;}.cls-2{fill:#e9d337;}.cls-3{clip-path:url(#clip-path);}</style><clipPath id="clip-path"><path id="SVGID" class="cls-1" d="M131.3313,343.376a19.739,19.739,0,0,1-19.7393,19.739H24.7388A19.7393,19.7393,0,0,1,5,343.376V256.5243A19.7391,19.7391,0,0,1,24.7388,236.785H111.592a19.7388,19.7388,0,0,1,19.7393,19.7393V343.376Z"/></clipPath></defs><title>logo-berlkoenig</title><path class="cls-2" d="M131.3313,343.376a19.739,19.739,0,0,1-19.7393,19.739H24.7388A19.7393,19.7393,0,0,1,5,343.376V256.5243A19.7391,19.7391,0,0,1,24.7388,236.785H111.592a19.7388,19.7388,0,0,1,19.7393,19.7393V343.376Z"/><g class="cls-3"><path d="M131.6188,316.3165V310.574H109.0742a7.9731,7.9731,0,1,0-7.3752,0H34.92a8.0536,8.0536,0,1,0-7.2816,0H4.7128v5.7425Zm-100.34-6.653a6.2665,6.2665,0,1,1,6.2666-6.2664,6.2664,6.2664,0,0,1-6.2666,6.2664Zm74.1081.0493a6.2038,6.2038,0,1,1,6.2036-6.2038,6.2039,6.2039,0,0,1-6.2036,6.2038Zm0-.8913a4.9648,4.9648,0,0,0,2.0765-.46l-1.9-2.9963a1.1048,1.1048,0,0,1-.4407-.0076l-1.9881,2.9053a4.9524,4.9524,0,0,0,2.2523.5589Zm1.606-4.4525,2.1316,2.7662a5.3768,5.3768,0,0,0,1.4013-3.6262c0-.1437-.03-.2787-.0409-.4193l-3.3439.8573a1.7726,1.7726,0,0,1-.1481.422Zm-.364-2.0874,3.3141-1.1812a5.1563,5.1563,0,0,0-3.4374-2.7695l-.2331,3.6861a1.8125,1.8125,0,0,1,.3564.2646Zm-2.4633-.0428a1.8058,1.8058,0,0,1,.3652-.2522l-.1042-3.69a5.1354,5.1354,0,0,0-3.5163,2.6522l3.2553,1.29Zm-.57,1.6464-3.29-.9672a4.8786,4.8786,0,0,0,1.2175,4.0591l2.206-2.6652a1.7928,1.7928,0,0,1-.1335-.4267Zm-72.3166,4.8781a5.0156,5.0156,0,0,0,2.0979-.465l-1.9195-3.0264a1.8239,1.8239,0,0,1-.2229.0185,1.7881,1.7881,0,0,1-.2222-.0265l-2.0083,2.9349a5.0022,5.0022,0,0,0,2.275.5645Zm1.6224-4.4976L35.054,307.06a5.4307,5.4307,0,0,0,1.4155-3.6628c0-.1451-.03-.2814-.0414-.4236l-3.3774.8662a1.81,1.81,0,0,1-.15.426Zm-.368-2.1083,3.348-1.1932a5.2076,5.2076,0,0,0-3.4722-2.7973l-.2354,3.7233a1.8174,1.8174,0,0,1,.36.2672Zm-2.4877-.0435a1.8257,1.8257,0,0,1,.3687-.2544l-.1051-3.7276a5.1876,5.1876,0,0,0-3.5519,2.6788l3.2883,1.3032Zm-.5762,1.6632L26.146,302.8a4.9254,4.9254,0,0,0,1.23,4.1l2.2283-2.6919a1.8032,1.8032,0,0,1-.1349-.4312Zm91.1861.1627a21.9488,21.9488,0,0,0,.0492-8.5607c-.4737-1.5792-.79-4.106-2.7589-5.5257-1.9374-1.3968-13.17-7.1763-14.7917-8.5177s-17.224-13.8913-24.4944-14.59c-10.838-1.041-55.6389-.6707-58.8834,1.0062S13.45,300.9562,15.234,302.9684c1.356,1.3628,5.8263,1.57,6.8153,1.62a6.9,6.9,0,0,1-.12-1.1025,9.5578,9.5578,0,0,1,9.396-9.7117,9.5577,9.5577,0,0,1,9.3958,9.7117,5.6009,5.6009,0,0,1-.1562,1.3083l56.0783,1.9373a18.9143,18.9143,0,0,1-.3788-3.545,9.1227,9.1227,0,0,1,18.2454,0,18.5945,18.5945,0,0,1-.5521,3.9287c1.8517.1078,8.9587-.366,6.6979-3.175ZM21.1393,285.1146c60.9915,3.0208,72.6092,7.5184,72.6092,7.5184s-28.5667-4.3894-72.6882-6.571l.079-.9474Zm21.3581-16.2327-1.4869,12.5524-19.3187-.5835a6.7642,6.7642,0,0,1,.2291-1.0518c.3153-1.2308,2.64-9.2409,6.4885-9.8939a112.8941,112.8941,0,0,1,14.088-1.0232Zm26.253,13.39-26.0791-.7876,1.2759-12.6368c11.8855-.2549,24.8032.16,24.8032.16v13.2648Zm22.4357-2.586c-.5068.06-.9843.1663-1.1172.3657a6.8336,6.8336,0,0,0-.3328,3.35c-8.2593-.4356-17.8535-.9194-17.8535-.9194l-.29-13.3169a39.5829,39.5829,0,0,1,8.8431,1.1055c2.6164.6684,6.8389,3.4047,10.75,6.2614v3.1541Zm9.463,4.3231c-1.1358-.0757-3.3865-.2032-6.1432-.3529a1.4674,1.4674,0,0,0,.2421-.858,5.5327,5.5327,0,0,0-1.5548-2.6475l-.2789-2.3347c4.2458,3.2047,7.7348,6.1931,7.7348,6.1931ZM120.06,295.8786l-4.2177-1.0434s-2.2143-3.9785-3.35-4.5189a8.7375,8.7375,0,0,1,3.9987.5315,5.2757,5.2757,0,0,1,2.1087,1.1365c.8409.7007,1.46,3.8943,1.46,3.8943ZM42.177,328.4273V351.223c0,1.4069.9046,1.8093,2.1048,1.8093H49.076c6.7982,0,8.3-3.8071,8.3-8.0052,0-2.6948-1.3009-5.6981-5.1018-5.9,3.5-.697,4.4042-3.1925,4.4042-5.9936,0-3.5-.9044-6.7041-7.2-6.7041H44.2818a2.0323,2.0323,0,0,0-2.1048,1.998Zm5.0011,12.6041H48.58c3.2991,0,3.6006,1.7972,3.6006,4.1971,0,2.2-.3015,4.198-3.2047,4.198H47.1781v-8.3951Zm0-10.9964H48.68c2.7965,0,3.1988.9937,3.1988,3.7016,0,1.69-.1008,3.7952-3.5,3.7952h-1.2V330.035Zm12.2963-.1056L64.3752,350.23c.4972,1.9976,1.502,3.0976,3.8018,3.0976,1.9916,0,3.1923-1.1,3.695-3.2986l4.5993-20.3958c.4538-2.1041-.6993-3.4044-2.2963-3.4044a2.4957,2.4957,0,0,0-2.504,2.3051l-2.8972,14.9926c-.2481,1.4067-.4975,3.0969-.5968,4.197a38.4132,38.4132,0,0,0-.6037-4.197l-3.1981-14.9926a2.5168,2.5168,0,0,0-2.6009-2.3051c-1.8977,0-2.8022,1.7028-2.3,3.7007Zm18.9946,9.896c0,9.1031,1.798,13.5021,9.6952,13.5021,4.9059,0,7.2015-1.7013,7.2015-5.6041v-7.898c0-1.5958-.4972-2.2936-1.9985-2.2936H88.9684a1.9557,1.9557,0,1,0,0,3.9015h1.5v7.6973a5.5621,5.5621,0,0,1-1.7008.2011c-3.4991,0-5.2022-1.7037-5.2022-9.1038,0-7.8993,1.9978-9.6957,5.0024-9.6957,2.3036,0,3.4037.8042,4.5027.8042a2.1073,2.1073,0,0,0,2.0937-2.1049,2.1439,2.1439,0,0,0-.697-1.5968c-1.502-1.2054-4.4944-1.5008-5.7951-1.5008-6.1951,0-10.2027,4.103-10.2027,13.6915Z"/></g><path class="cls-2" d="M177.2314,236.7849s-18.0777,0-18.0777,18.0777v90.2747s0,18.0778,18.0777,18.0778h399.691S595,363.2151,595,345.1373V254.8626s0-18.0777-18.0776-18.0777Z"/><path d="M564.0279,285.1308c-3.9864-1.1388-11.1031-1.8033-17.0827-1.8033-20.7848,0-30.5618,15.9449-30.5618,34.3573,0,10.44,3.8911,16.1347,12.8137,16.1347,6.4529,0,10.7251-3.322,14.9958-8.2575h.2842a29.3268,29.3268,0,0,0-1.8026,5.8847c-1.6136,7.308-6.55,13.0026-16.42,13.0026a24,24,0,0,1-12.1481-3.227l-2.6571,10.1554a47.1163,47.1163,0,0,0,14.4257,2.6574c15.7549,0,25.2461-7.0234,28.4733-22.3988l9.68-46.5055Zm-13.5711,7.403-1.898,8.9215c-3.6067,16.8938-10.82,23.2526-15.6613,23.2526-3.0366,0-4.2706-2.4675-4.2706-8.257,0-11.9587,6.17-24.4866,16.4205-24.4866a24.2686,24.2686,0,0,1,5.4094.57Zm-30.8446-23.8221c0-3.5116-2.5634-5.8845-6.4544-5.8845a7.5843,7.5843,0,0,0-7.8775,7.6876,5.7746,5.7746,0,0,0,6.0749,5.5045c4.7456,0,8.257-3.1318,8.257-7.3076Zm-3.9863,15.28h-12.623L492.562,332.9652h12.623l10.4409-48.9732Zm-25.53,17.1784a33.7719,33.7719,0,0,0,.7592-6.4537c0-8.0675-4.366-11.5789-10.344-11.5789-6.55,0-11.4843,2.7523-15.7566,8.6367h-.1889c.1889-1.4235,1.1386-6.7386,1.3292-7.7825H453.9353c-.38,3.2267-1.2341,8.0673-2.2775,12.8127l-7.6885,36.16h12.623l4.177-20.1208c2.8461-13.572,8.8256-19.3615,13.2869-19.3615,2.5618,0,3.7958,1.2338,3.7958,4.3658a24.4456,24.4456,0,0,1-.5686,4.65l-6.4544,30.4661h12.5278l6.7387-31.7948Zm-47.5476-.19c0-10.25-5.3157-17.8429-17.4639-17.8429-24.1074,0-28.2827,24.961-28.2827,33.0284,0,10.1553,5.1251,17.7482,17.4623,17.7482,24.3915,0,28.2843-25.6258,28.2843-32.9337Zm-12.9089-.9491c0,1.993-1.4231,24.7713-13.476,24.7713-4.6518,0-6.4544-2.8471-6.4544-7.8774,0-4.0811,1.9932-24.7714,13.3822-24.7714,4.7455,0,6.5482,2.7525,6.5482,7.8775Zm12.0545-30.3709a4.9346,4.9346,0,0,0-5.1252-5.125,6.518,6.518,0,0,0-6.4545,6.4538,4.9345,4.9345,0,0,0,5.1252,5.1248,6.5814,6.5814,0,0,0,6.4545-6.4536Zm-16.1347,0a4.9344,4.9344,0,0,0-5.125-5.125,6.518,6.518,0,0,0-6.4545,6.4538,4.9345,4.9345,0,0,0,5.1251,5.1248,6.5813,6.5813,0,0,0,6.4544-6.4536Zm-48.69,29.0422,29.2325-31.9844h-15.755l-23.3482,27.8084h-.189l5.8843-27.8084H359.596L345.55,332.9652h13.0979l6.6435-31.2252h.189l12.9089,31.2252h15.66l-17.18-34.2623Zm-65.8644-6.0741h-.1906c.4749-2.0882,1.4231-7.5929,1.6136-8.6368H300.4688c-.4733,2.8471-1.0435,7.1181-2.1822,12.433l-7.7822,36.54h12.623l4.1755-19.5513c2.9413-13.6671,8.446-19.1718,13.9507-19.1718a14.7148,14.7148,0,0,1,3.9864.4746l2.3728-11.4842a12.8789,12.8789,0,0,0-2.7524-.2846c-5.03,0-10.4392,3.2269-13.8555,9.6809Zm-21.8282,6.5486a15.6039,15.6039,0,0,0,.6638-4.3658c0-6.454-4.65-11.6738-15.3754-11.6738-22.9686,0-27.7141,24.6764-27.7141,33.4081,0,10.06,5.0314,17.3685,18.1277,17.3685a49.9344,49.9344,0,0,0,16.0409-2.8475l1.7073-9.5857c-3.9864,1.8981-9.3,3.8913-13.6665,3.8913-6.7387,0-10.63-1.8983-10.63-8.352a26.358,26.358,0,0,1,.4748-4.3661h3.0367c9.0162,0,23.9168-2.3727,27.3346-13.477Zm-11.01-2.9423c0,4.6506-5.22,8.6368-16.6094,8.6368h-1.234c1.9932-8.9214,7.4026-13.477,11.9575-13.477,4.2723,0,5.8859,2.3728,5.8859,4.84Zm-32.6487-16.2295c0-8.1619-5.6-13.2871-16.4188-13.2871H208.1243l-14.0461,66.2467h20.69c16.0392,0,25.3413-10.06,25.3413-21.8292,0-7.308-4.2706-11.4842-9.5864-12.2433v-.19c7.8775-2.4678,14.9958-8.1623,14.9958-18.6973ZM212.9652,303.733h6.8324c5.3157,0,7.7838,2.7526,7.7838,7.1182a13.5351,13.5351,0,0,1-1.7089,6.6436c-2.0885,3.7017-5.98,5.8845-11.1047,5.8845h-5.98l4.177-19.6463Zm19.646-21.7344a15.5222,15.5222,0,0,1-1.4246,5.9795c-2.0869,3.8912-6.3576,6.264-11.8623,6.264H215.052l3.7974-18.1278h5.5048c5.8843,0,8.257,1.9932,8.257,5.8843ZM336.8373,266.62l-14.0654,66.3449H335.395L349.46,266.62Z"/></svg>