<svg id="Layer_1" data-name="Layer 1" xmlns="http://www.w3.org/2000/svg" viewBox="0 0 600 600"><defs><style>.cls-1{fill:#191d2f;}</style></defs><title>logo-cobot</title><path class="cls-1" d="M67.4619,352.9a35.8125,35.8125,0,0,1-36.63-34.9753q-.0265-1.1495.0207-2.2989A34.6164,34.6164,0,0,1,63.403,279.0606q1.4962-.087,2.9958-.0441a46.5092,46.5092,0,0,1,30.63,12.69l13.2885-20.3977A59.3328,59.3328,0,0,0,64.6713,253.702a60.7946,60.7946,0,0,0-63.6028,57.85q-.1042,2.2014-.0489,4.406a60.7947,60.7947,0,0,0,59.2456,62.3053q2.2032.0553,4.4061-.0488A66.4425,66.4425,0,0,0,112.842,358.88l-11.2288-21.1287A53.885,53.885,0,0,1,67.4619,352.9Z"/><path class="cls-1" d="M182.8721,253.702c-35.5466,0-64.3825,25.6467-64.3825,62.2563s28.8359,61.9242,64.7147,62.2565,64.3826-25.6468,64.3826-62.2564S218.7509,253.702,182.8721,253.702Zm.3322,99.1983a35.2144,35.2144,0,0,1-34.8564-35.5688q.0069-.6868.0407-1.3731a35.2143,35.2143,0,0,1,33.4426-36.9012q.6861-.0338,1.3731-.0407a34.4818,34.4818,0,0,1,8.5711,1.1959A23.1884,23.1884,0,1,0,215.96,303.2679h0a40.4637,40.4637,0,0,1,2.1262,12.69,35.015,35.015,0,0,1-33.0351,36.8889Q184.1287,352.8982,183.2043,352.9Z"/><path class="cls-1" d="M326.5867,253.37a40.862,40.862,0,0,0-35.1479,17.2086h-.3322s.3322-3.8537.3322-9.8335V209.7172H262.7357V375.0255h27.4407v-6.6442c0-4.5845-.3322-8.106-.3322-8.106h.3322a41.1936,41.1936,0,0,0,34.8157,17.6072c30.9621,0,53.8182-24.65,53.8182-62.2563S358.4126,253.37,326.5867,253.37Zm-6.6442,99.6634c-19.9327,0-29.1682-18.2716-29.1682-36.61,0-26.5769,14.418-37.6063,29.5669-37.6063,17.2085,0,29.1681,14.75,29.1681,37.2741.1329,23.7864-13.2884,37.1413-29.5668,37.1413Z"/><path class="cls-1" d="M456.2156,253.702c-35.5466,0-64.3826,25.6467-64.3826,62.2563s28.836,62.2565,64.7148,62.2565S520.93,352.568,520.93,315.9584,492.0944,253.702,456.2156,253.702Zm.3322,99.1983A34.8158,34.8158,0,0,1,421.6672,318.15q-.0021-1.0962.0649-2.1911a35.2143,35.2143,0,0,1,33.4426-36.9012q.6861-.0338,1.3731-.0407a34.6786,34.6786,0,0,1,7.7738.93,23.4541,23.4541,0,1,0,25.1816,24.1849,40.5994,40.5994,0,0,1,1.86,11.76,35.0151,35.0151,0,0,1-32.9648,36.9518Q457.4742,352.8965,456.5478,352.9Z"/><path class="cls-1" d="M593.7511,350.0432a20.93,20.93,0,0,1-23.1884-22.5239V281.4748H597.14v-23.587H570.5627V223.8029h-28.57v34.4836h-16.079v23.587h15.1488v49.9646c0,39.8653,32.3574,44.6492,48.5693,44.6492A51.3015,51.3015,0,0,0,599,375.7564V349.711A35.4688,35.4688,0,0,1,593.7511,350.0432Z"/></svg>