<svg id="Layer_1" data-name="Layer 1" xmlns="http://www.w3.org/2000/svg" viewBox="0 0 31 31"><defs><style>.cls-1{fill:#fff;}</style></defs><title>instagram</title><circle class="cls-1" cx="15.5" cy="15.5" r="2.873"/><path class="cls-1" d="M22.219,10.416a2.846,2.846,0,0,0-1.635-1.635,4.767,4.767,0,0,0-1.6-.3c-.909-.042-1.181-.05-3.483-.05s-2.574.008-3.483.05a4.767,4.767,0,0,0-1.6.3,2.846,2.846,0,0,0-1.635,1.635,4.767,4.767,0,0,0-.3,1.6c-.042.909-.05,1.181-.05,3.483s.008,2.574.05,3.483a4.767,4.767,0,0,0,.3,1.6,2.846,2.846,0,0,0,1.635,1.635,4.767,4.767,0,0,0,1.6.3c.909.042,1.181.05,3.483.05s2.574-.008,3.483-.05a4.767,4.767,0,0,0,1.6-.3,2.846,2.846,0,0,0,1.635-1.635,4.767,4.767,0,0,0,.3-1.6c.042-.909.05-1.181.05-3.483s-.008-2.574-.05-3.483A4.767,4.767,0,0,0,22.219,10.416ZM15.5,19.926A4.426,4.426,0,1,1,19.926,15.5,4.425,4.425,0,0,1,15.5,19.926Zm4.6-7.993A1.034,1.034,0,1,1,21.135,10.9,1.034,1.034,0,0,1,20.1,11.933Z"/><path class="cls-1" d="M15.5.5a15,15,0,1,0,15,15A15,15,0,0,0,15.5.5Zm8.568,18.554a6.33,6.33,0,0,1-.4,2.092,4.4,4.4,0,0,1-2.521,2.521,6.33,6.33,0,0,1-2.092.4c-.92.042-1.213.052-3.554.052s-2.634-.01-3.554-.052a6.33,6.33,0,0,1-2.092-.4,4.4,4.4,0,0,1-2.521-2.521,6.33,6.33,0,0,1-.4-2.092c-.042-.92-.052-1.213-.052-3.554s.01-2.634.052-3.554a6.33,6.33,0,0,1,.4-2.092A4.4,4.4,0,0,1,9.854,7.333a6.33,6.33,0,0,1,2.092-.4c.92-.042,1.213-.052,3.554-.052s2.634.01,3.554.052a6.33,6.33,0,0,1,2.092.4,4.4,4.4,0,0,1,2.521,2.521,6.33,6.33,0,0,1,.4,2.092c.042.92.052,1.213.052,3.554S24.11,18.134,24.068,19.054Z"/></svg>