<svg viewBox="0 0 31 31" xmlns="http://www.w3.org/2000/svg"><g fill="#fff"><circle cx="15.5" cy="15.5" r="2.873"/><path d="m22.219 10.416a2.846 2.846 0 0 0 -1.635-1.635 4.767 4.767 0 0 0 -1.6-.3c-.909-.042-1.181-.05-3.483-.05s-2.574.008-3.483.05a4.767 4.767 0 0 0 -1.6.3 2.846 2.846 0 0 0 -1.635 1.635 4.767 4.767 0 0 0 -.3 1.6c-.042.909-.05 1.181-.05 3.483s.008 2.574.05 3.483a4.767 4.767 0 0 0 .3 1.6 2.846 2.846 0 0 0 1.635 1.635 4.767 4.767 0 0 0 1.6.3c.909.042 1.181.05 3.483.05s2.574-.008 3.483-.05a4.767 4.767 0 0 0 1.6-.3 2.846 2.846 0 0 0 1.635-1.635 4.767 4.767 0 0 0 .3-1.6c.042-.909.05-1.181.05-3.483s-.008-2.574-.05-3.483a4.767 4.767 0 0 0 -.3-1.6zm-6.719 9.51a4.426 4.426 0 1 1 4.426-4.426 4.425 4.425 0 0 1 -4.426 4.426zm4.6-7.993a1.034 1.034 0 1 1 1.035-1.033 1.034 1.034 0 0 1 -1.035 1.033z"/><path d="m15.5.5a15 15 0 1 0 15 15 15 15 0 0 0 -15-15zm8.568 18.554a6.33 6.33 0 0 1 -.4 2.092 4.4 4.4 0 0 1 -2.521 2.521 6.33 6.33 0 0 1 -2.092.4c-.92.042-1.213.052-3.554.052s-2.634-.01-3.554-.052a6.33 6.33 0 0 1 -2.092-.4 4.4 4.4 0 0 1 -2.521-2.521 6.33 6.33 0 0 1 -.4-2.092c-.042-.92-.052-1.213-.052-3.554s.01-2.634.052-3.554a6.33 6.33 0 0 1 .4-2.092 4.4 4.4 0 0 1 2.52-2.521 6.33 6.33 0 0 1 2.092-.4c.92-.042 1.213-.052 3.554-.052s2.634.01 3.554.052a6.33 6.33 0 0 1 2.092.4 4.4 4.4 0 0 1 2.521 2.521 6.33 6.33 0 0 1 .4 2.092c.042.92.052 1.213.052 3.554s-.009 2.634-.051 3.554z"/></g></svg>