<svg viewBox="0 0 243 290" xmlns="http://www.w3.org/2000/svg"><path d="m217 110.5a20.69 20.69 0 0 0 -6.59-4.42 20.47 20.47 0 0 0 -16 0 20.43 20.43 0 0 0 -11 11 20.47 20.47 0 0 0 0 16 20.34 20.34 0 0 0 11 11 20.47 20.47 0 0 0 16 0 20.83 20.83 0 0 0 6.59-4.38 20.54 20.54 0 0 0 4.41-6.6 20.36 20.36 0 0 0 0-16 20.5 20.5 0 0 0 -4.41-6.6zm-2.25 26.95a17.47 17.47 0 1 1 -24.7-24.7 17.47 17.47 0 1 1 24.7 24.7zm4.37-41.22a33.44 33.44 0 0 0 -33.44 0 33.16 33.16 0 0 0 -12.15 12.15 33.44 33.44 0 0 0 0 33.44 33.31 33.31 0 0 0 12.16 12.18 33.44 33.44 0 0 0 33.44 0 33.31 33.31 0 0 0 12.15-12.15 33.44 33.44 0 0 0 0-33.44 33.16 33.16 0 0 0 -12.15-12.18zm11.07 40.6a29.48 29.48 0 0 1 -16 16.06 30.12 30.12 0 0 1 -23.47 0 29.46 29.46 0 0 1 -16.06-16.06 30.12 30.12 0 0 1 0-23.47 29.48 29.48 0 0 1 16.06-16 30 30 0 0 1 23.47 0 29.51 29.51 0 0 1 16 16 30 30 0 0 1 0 23.47zm-14.19-35.11a27.13 27.13 0 0 0 -27.08 0 27 27 0 0 0 0 46.76 27.2 27.2 0 0 0 27.08 0 26.77 26.77 0 0 0 9.84-9.84 27 27 0 0 0 -9.84-36.92zm7 35.33a23.87 23.87 0 0 1 -8.67 8.67 23.93 23.93 0 0 1 -23.91 0 23.72 23.72 0 0 1 -8.67-8.67 23.93 23.93 0 0 1 0-23.91 23.76 23.76 0 0 1 8.67-8.66 23.93 23.93 0 0 1 23.91 0 23.92 23.92 0 0 1 8.67 8.66 24 24 0 0 1 0 23.91zm16-27.37a39.16 39.16 0 0 0 -21.13-21.13 39.29 39.29 0 0 0 -30.83 0 39.13 39.13 0 0 0 -21.14 21.13 39.29 39.29 0 0 0 0 30.83 39.19 39.19 0 0 0 21.1 21.14 39.41 39.41 0 0 0 30.83 0 39.22 39.22 0 0 0 21.17-21.14 39.29 39.29 0 0 0 0-30.83zm-2.91 29.6a35.82 35.82 0 0 1 -19.46 19.45 36.23 36.23 0 0 1 -28.36 0 35.76 35.76 0 0 1 -19.45-19.45 36.23 36.23 0 0 1 0-28.36 35.82 35.82 0 0 1 19.45-19.46 36.23 36.23 0 0 1 28.36 0 35.88 35.88 0 0 1 19.46 19.46 36.23 36.23 0 0 1 0 28.36zm-192.09 48.72h-27.23v57.17h-3.18v-60.35h30.41a13.14 13.14 0 0 1 9.48 4 12.42 12.42 0 0 1 4.14 9.18 13.56 13.56 0 0 1 -4 10.19 13.34 13.34 0 0 1 -9.62 3.81h-19.11v-3.17h19.11a10.44 10.44 0 0 0 7.42-2.83q3-2.82 3-8a9.4 9.4 0 0 0 -3.18-6.91 10.12 10.12 0 0 0 -7.24-3.09zm0-6.35h-33.58v63.52h-3.18v-66.7h36.76a19.27 19.27 0 0 1 9.86 2.69 20.62 20.62 0 0 1 7.34 7.21 18.22 18.22 0 0 1 2.8 9.63 19.66 19.66 0 0 1 -5.89 14.54 19.28 19.28 0 0 1 -14 5.84h-19.22v-3.18h19.11a16.3 16.3 0 0 0 11.82-4.83 16.56 16.56 0 0 0 4.97-12.37 15.44 15.44 0 0 0 -5-11.4 16.28 16.28 0 0 0 -11.79-4.96zm0 12.7h-20.88v50.82h-3.12v-54h24a7.25 7.25 0 0 1 5.1 2 6.37 6.37 0 0 1 2.16 4.83q0 7.68-7.23 7.67h-19.14v-3.17h19.11a4.21 4.21 0 0 0 3-1 4.62 4.62 0 0 0 1.08-3.5 3.3 3.3 0 0 0 -1.17-2.58 4.2 4.2 0 0 0 -2.91-1.08zm22.69-9.15a24.32 24.32 0 0 1 3.63 12.8 27.48 27.48 0 0 1 -3.32 13.76 24.39 24.39 0 0 1 -9.16 9.31l8.16 24.09h-3.35l-7.86-22.59a27.77 27.77 0 0 1 -2.69 1l7.37 21.62h-3.35l-7.19-20.87c-.27.06-1.21.16-2.83.31l6.84 20.56h-3.35l-6.75-20.47h-2.84l6.44 20.47h-3.38l-6.48-20.47h-11.69v-3.18h19.11a22.6 22.6 0 0 0 11.47-3 22.92 22.92 0 0 0 8.53-8.54 23.4 23.4 0 0 0 3.17-12 21.34 21.34 0 0 0 -3.17-11.23 23.84 23.84 0 0 0 -8.49-8.35 22.26 22.26 0 0 0 -11.51-3.13h-40v69.88h-3.11v-73h43.11a25.36 25.36 0 0 1 13 3.55 26.8 26.8 0 0 1 9.72 9.47zm27.31-13.09h3.18v73h-3.18zm-12.71 0h3.18v73h-3.14zm6.36 0h3.17v73h-3.13zm12.7 0h3.18v73h-3.18zm9.34 36.53 18.7 36.52h-3.52l-18.67-36.52 10.32-36.53h3.53zm21.35 0 18.66 36.52h-3.53l-18.66-36.52 10.28-36.53h3.52zm-7.1 0 18.66 36.52h-3.53l-18.66-36.52 10.27-36.53h3.53zm-7.1 0 18.66 36.52h-3.5l-18.66-36.52 10.27-36.53h3.53zm-32.51-47h-3.27l-19.32-73.07h3.31l17.69 66.78 17.69-66.78h3.3zm5.51-41.16-8.38-31.91h3.3l6.8 25.72zm-18.22-31.91 13.32 50.6-1.5 6.26-15.08-56.86zm38.64 0-19.32 73.05h-3.27l19.33-73.05zm-23.64 44.43-11.69-44.43h3.22l10.1 38.43zm59.95-44.47h3.22l-19.33 73.05h-3.26zm-9.57 73.09h-3.27l19.32-73.05h3.27zm-20.17-73.05-19.32 73.05h-3.26l19.32-73.05zm26.83 73.05h-3.31l19.32-73.05h3.33zm-23.08 0h3.31l19.37-73.05h-3.26l-7.9 29.73-8.6-29.64v-.09h-3.4v.09l-19.32 73h3.31l7.81-29.6zm1.28-67 8.56 29.82-1.63 6.26-8.65-29.7zm-3.3 12.44 8.59 29.78-1.67 6.22-8.6-29.74zm-3.31 12.48 8.6 29.73-1.68 6.31-8.56-29.82zm-56.8-49.78a40.47 40.47 0 0 0 12.84 8.59 39.77 39.77 0 0 0 31.26 0 40.58 40.58 0 0 0 12.84-8.59l.5-.52.5.52a40.42 40.42 0 0 0 12.83 8.59 39.8 39.8 0 0 0 31.27 0 39.76 39.76 0 0 0 21.42-21.42 39.89 39.89 0 0 0 0-31.26 39.67 39.67 0 0 0 -21.42-21.42 39.8 39.8 0 0 0 -31.27 0 39.67 39.67 0 0 0 -21.42 21.42 39.2 39.2 0 0 0 -3.19 15.63v.35a17.71 17.71 0 0 1 -17.69 17.35 17.72 17.72 0 0 1 -17.71-17.7 17.72 17.72 0 0 1 17.71-17.71v-3.22a20.5 20.5 0 0 0 -8.12 1.63 20.71 20.71 0 0 0 -11.16 11.18 20.78 20.78 0 0 0 0 16.23 21.18 21.18 0 0 0 4.48 6.69 21 21 0 0 0 6.68 4.47 20.69 20.69 0 0 0 16.24 0 20.46 20.46 0 0 0 10.64-10.08 38.52 38.52 0 0 0 1.28 4.3 24.05 24.05 0 0 1 -7.96 7.42 24.26 24.26 0 0 1 -24.24 0 24.11 24.11 0 0 1 -8.76-8.79 24.29 24.29 0 0 1 0-24.24 24.14 24.14 0 0 1 8.79-8.79 23.61 23.61 0 0 1 12.12-3.24v-3.22a27.32 27.32 0 0 0 -27.36 27.37 26.8 26.8 0 0 0 3.67 13.7 27.09 27.09 0 0 0 10 10 27.36 27.36 0 0 0 35.22-6.73c.51 1.08 1 2.12 1.63 3.12-.47.54-1 1.07-1.45 1.57a30.62 30.62 0 0 1 -9.77 6.51 30.47 30.47 0 0 1 -23.8 0 29.84 29.84 0 0 1 -16.3-16.28 30.44 30.44 0 0 1 0-23.79 29.78 29.78 0 0 1 16.25-16.27 30 30 0 0 1 11.9-2.42v-3.22a33 33 0 0 0 -16.9 4.51 33.62 33.62 0 0 0 -12.35 12.35 33 33 0 0 0 -4.54 16.95 33 33 0 0 0 4.54 17 33.77 33.77 0 0 0 12.35 12.27 33.91 33.91 0 0 0 33.9 0 33.74 33.74 0 0 0 7.92-6.37c.62.92 1.27 1.8 2 2.65l-.63.65a37.18 37.18 0 0 1 -11.83 7.9 36.75 36.75 0 0 1 -28.76 0 36.37 36.37 0 0 1 -19.78-19.72 36.75 36.75 0 0 1 0-28.76 36.29 36.29 0 0 1 19.72-19.72 36.33 36.33 0 0 1 14.38-2.93v-3.22a39.21 39.21 0 0 0 -15.63 3.2 39.59 39.59 0 0 0 -21.42 21.42 39.77 39.77 0 0 0 0 31.26 40.56 40.56 0 0 0 8.58 12.83zm57.44-5.38a33.07 33.07 0 0 1 -2-2.73c.69-.93 1.35-1.91 2-2.92a34.58 34.58 0 0 0 2 2.92c-.66.94-1.31 1.86-2 2.73zm4.83-22.69v-.39a23.52 23.52 0 0 1 3.28-12.12 24.14 24.14 0 0 1 8.79-8.79 24.29 24.29 0 0 1 24.24 0 24.18 24.18 0 0 1 8.78 8.79 23.52 23.52 0 0 1 3.19 12.12 23.52 23.52 0 0 1 -3.24 12.12 24.18 24.18 0 0 1 -8.76 8.79 24.29 24.29 0 0 1 -24.24 0 24.08 24.08 0 0 1 -7.93-7.42 38.06 38.06 0 0 0 1.28-4.31 20.72 20.72 0 0 0 4 5.62 21.18 21.18 0 0 0 6.69 4.48 20.78 20.78 0 0 0 16.23 0 21.18 21.18 0 0 0 6.69-4.48 21 21 0 0 0 4.47-6.68 20.81 20.81 0 0 0 0-16.24 20.65 20.65 0 0 0 -11.19-11.18 20.67 20.67 0 0 0 -16.23 0 20.65 20.65 0 0 0 -11.16 11.15 20.51 20.51 0 0 0 -1.66 8.12v.49a36.48 36.48 0 0 1 -1.27 9.11 23.63 23.63 0 0 1 -1.96-9.18zm.51 13.46-.21.53c-.43 1-.91 2-1.4 2.94a30.5 30.5 0 0 1 -1.93-3.29 34 34 0 0 0 1.6-4.21 27.88 27.88 0 0 0 1.86 3.88zm5.92-13.85a17.71 17.71 0 1 1 35.41 0 17.7 17.7 0 0 1 -35.4.35c0-.13-.01-.24-.01-.35zm-3.79 17a27.44 27.44 0 0 0 35.22 6.7 27.38 27.38 0 0 0 0-47.4 27.5 27.5 0 0 0 -27.45 0 27.26 27.26 0 0 0 -13.64 23.7v.43a30.22 30.22 0 0 1 -1.61 9.37 30.23 30.23 0 0 1 -1.62-9.37.28.28 0 0 0 0-.09v-.34a30.14 30.14 0 0 1 2.41-11.9 29.84 29.84 0 0 1 16.33-16.27 30.44 30.44 0 0 1 23.79 0 29.84 29.84 0 0 1 16.21 16.27 30.44 30.44 0 0 1 0 23.79 29.81 29.81 0 0 1 -16.28 16.28 30.44 30.44 0 0 1 -23.79 0 30.48 30.48 0 0 1 -9.77-6.5c-.51-.51-1-1-1.45-1.58q.9-1.5 1.65-3.12zm-14.26-7.4a36.89 36.89 0 0 1 1.65-24 36.35 36.35 0 0 1 19.73-19.7 36.73 36.73 0 0 1 28.75 0 36.29 36.29 0 0 1 19.77 19.72 36.75 36.75 0 0 1 0 28.76 36.37 36.37 0 0 1 -19.77 19.72 36.73 36.73 0 0 1 -28.75 0 36.9 36.9 0 0 1 -11.83-7.9c-.22-.21-.42-.43-.63-.65.69-.85 1.34-1.73 2-2.64a34.22 34.22 0 0 0 7.93 6.36 33.89 33.89 0 0 0 33.89 0 33.62 33.62 0 0 0 12.32-12.32 33 33 0 0 0 4.54-17 33 33 0 0 0 -4.54-16.95 33.62 33.62 0 0 0 -12.36-12.3 33.89 33.89 0 0 0 -33.89 0 33.73 33.73 0 0 0 -12.33 12.32 33.11 33.11 0 0 0 -4.53 16.95v.4a23.59 23.59 0 0 1 -1.95 9.23zm3.06 7.72q-.75-1.42-1.41-2.94c-.07-.18-.13-.35-.21-.53l.08-.12a27.42 27.42 0 0 0 1.87-3.91 30.61 30.61 0 0 0 1.6 4.21 32.24 32.24 0 0 1 -1.93 3.29z" fill="#fff"/><path d="m10.41 264.14a8 8 0 0 0 1.92-.2 4.83 4.83 0 0 0 1.36-.54l.69 2.46a6.56 6.56 0 0 1 -1.68.62 11 11 0 0 1 -2.63.27 9.13 9.13 0 0 1 -3.23-.56 7.15 7.15 0 0 1 -4.21-4.13 9.18 9.18 0 0 1 -.63-3.36 8.86 8.86 0 0 1 .58-3.3 7.3 7.3 0 0 1 1.63-2.53 7.12 7.12 0 0 1 2.54-1.61 9.42 9.42 0 0 1 3.35-.57 9.42 9.42 0 0 1 2.6.3 8.62 8.62 0 0 1 1.66.64l-.76 2.49a7.27 7.27 0 0 0 -1.42-.58 5.79 5.79 0 0 0 -1.73-.24 5.87 5.87 0 0 0 -1.9.3 4 4 0 0 0 -1.55 1 4.59 4.59 0 0 0 -1 1.67 7.22 7.22 0 0 0 -.38 2.48 7 7 0 0 0 .38 2.37 4.71 4.71 0 0 0 1 1.69 4.46 4.46 0 0 0 1.53 1 5.27 5.27 0 0 0 1.88.33z" fill="#fff"/><path d="m23.26 250.69a8.39 8.39 0 0 1 3 .55 6.82 6.82 0 0 1 2.42 1.56 7.17 7.17 0 0 1 1.58 2.52 9.45 9.45 0 0 1 .58 3.43 9 9 0 0 1 -.59 3.34 7 7 0 0 1 -4.07 4.1 8.37 8.37 0 0 1 -3.07.56 8.61 8.61 0 0 1 -3.05-.53 6.54 6.54 0 0 1 -2.41-1.55 7.09 7.09 0 0 1 -1.59-2.51 9.31 9.31 0 0 1 -.58-3.41 9.2 9.2 0 0 1 .59-3.37 7.58 7.58 0 0 1 1.62-2.53 7 7 0 0 1 2.45-1.6 8.37 8.37 0 0 1 3.12-.56zm-4.16 8.06a7.87 7.87 0 0 0 .33 2.4 4.94 4.94 0 0 0 .9 1.69 3.54 3.54 0 0 0 1.32 1 3.81 3.81 0 0 0 1.61.34 3.76 3.76 0 0 0 1.59-.34 3.3 3.3 0 0 0 1.29-1 5.07 5.07 0 0 0 .86-1.69 7.88 7.88 0 0 0 .32-2.4 8.16 8.16 0 0 0 -.33-2.47 5 5 0 0 0 -.9-1.71 3.49 3.49 0 0 0 -1.32-1 3.93 3.93 0 0 0 -1.61-.33 3.74 3.74 0 0 0 -1.6.35 3.57 3.57 0 0 0 -1.28 1 5.08 5.08 0 0 0 -.86 1.71 8.35 8.35 0 0 0 -.32 2.45z" fill="#fff"/><path d="m35.05 251 1.7 7.16c0 .21.11.53.19.94s.15.85.24 1.31.18.93.25 1.39.13.84.18 1.14c.05-.32.11-.7.19-1.15s.15-.91.24-1.38.18-.9.27-1.3l.21-.95 1.8-7.16h3.52l1.8 7.14c.05.21.11.52.2.93s.17.85.27 1.33.19.94.27 1.4.15.84.19 1.14h.05c0-.32.12-.7.2-1.15s.17-.9.26-1.36.18-.9.26-1.32.15-.74.19-1l1.68-7.11h3.4l-4 15.51h-3.61l-2-8c-.17-.65-.32-1.3-.46-1.94s-.27-1.31-.41-2c-.14.68-.27 1.34-.4 2s-.28 1.28-.44 1.95l-1.92 8h-3.7l-4-15.51z" fill="#fff"/><path d="m61.05 250.69a8.49 8.49 0 0 1 3.06.55 6.78 6.78 0 0 1 2.41 1.56 7.33 7.33 0 0 1 1.59 2.52 9.67 9.67 0 0 1 .58 3.43 8.8 8.8 0 0 1 -.6 3.34 7 7 0 0 1 -4.07 4.1 8.37 8.37 0 0 1 -3.07.56 8.65 8.65 0 0 1 -3.05-.53 6.62 6.62 0 0 1 -2.41-1.55 7.38 7.38 0 0 1 -1.59-2.51 9.31 9.31 0 0 1 -.58-3.41 9.2 9.2 0 0 1 .59-3.37 7.6 7.6 0 0 1 1.63-2.53 6.9 6.9 0 0 1 2.45-1.6 8.28 8.28 0 0 1 3.06-.56zm-4.16 8.06a7.87 7.87 0 0 0 .33 2.4 5.11 5.11 0 0 0 .9 1.69 3.54 3.54 0 0 0 1.32 1 3.81 3.81 0 0 0 1.61.34 3.76 3.76 0 0 0 1.59-.34 3.3 3.3 0 0 0 1.29-1 5.07 5.07 0 0 0 .86-1.69 7.88 7.88 0 0 0 .32-2.4 8.16 8.16 0 0 0 -.33-2.47 5 5 0 0 0 -.9-1.71 3.38 3.38 0 0 0 -1.31-1 4 4 0 0 0 -1.62-.33 3.78 3.78 0 0 0 -1.6.35 3.57 3.57 0 0 0 -1.28 1 5.08 5.08 0 0 0 -.86 1.71 8.35 8.35 0 0 0 -.32 2.45z" fill="#fff"/><path d="m71.1 251h5.9a6.27 6.27 0 0 1 2.3.38 4.68 4.68 0 0 1 1.66 1 4.19 4.19 0 0 1 1 1.53 5.27 5.27 0 0 1 .33 1.88 4.55 4.55 0 0 1 -1 2.92 4.4 4.4 0 0 1 -1 .88 6.83 6.83 0 0 1 -1 .58l3.79 6.31h-3.86l-3-5.72h-1.77v5.72h-3.35zm3.35 7.21h1.32a4 4 0 0 0 2.18-.54 2 2 0 0 0 .85-1.8 2.17 2.17 0 0 0 -.67-1.71 2.94 2.94 0 0 0 -2-.6h-1.68z" fill="#fff"/><path d="m85.14 266.48v-15.48h3.37v6.52l5.34-6.52h4.15l-5.79 6.77 6.28 8.74h-4.12l-4.58-6.63-1.28 1.36v5.27z" fill="#fff"/><path d="m103.68 251v15.51h-3.38v-15.51z" fill="#fff"/><path d="m106.93 251h3.07l5.35 8.17c.36.56.69 1.1 1 1.64a12.64 12.64 0 0 1 .65 1.19c-.1-1.07-.15-2.13-.15-3.19v-7.81h3.15v15.51h-3l-5-7.54c-.21-.33-.42-.67-.62-1s-.4-.69-.58-1l-.48-.9a7 7 0 0 1 -.31-.68c.08 1.14.13 2.22.14 3.27s0 2.1 0 3.18v4.71h-3.15z" fill="#fff"/><path d="m130.69 250.69a12.47 12.47 0 0 1 2.58.25 10.27 10.27 0 0 1 2 .67l-.72 2.29a7.77 7.77 0 0 0 -1.77-.62 8.63 8.63 0 0 0 -1.8-.2 5.76 5.76 0 0 0 -1.91.32 4 4 0 0 0 -1.56 1 5 5 0 0 0 -1.06 1.76 7.61 7.61 0 0 0 -.39 2.58 6.27 6.27 0 0 0 1.19 4.12 4.18 4.18 0 0 0 3.41 1.44 5.52 5.52 0 0 0 1.92-.25v-3.62h-2.56v-2.51h5.79v7.86a11.63 11.63 0 0 1 -2.24.69 14.33 14.33 0 0 1 -2.93.27 9.66 9.66 0 0 1 -3.22-.52 7.16 7.16 0 0 1 -2.58-1.54 7.26 7.26 0 0 1 -1.73-2.51 8.93 8.93 0 0 1 -.62-3.43 9.12 9.12 0 0 1 .62-3.46 7.14 7.14 0 0 1 1.72-2.53 7.47 7.47 0 0 1 2.57-1.54 9.66 9.66 0 0 1 3.29-.52z" fill="#fff"/><path d="m154.3 251v2.61h-6.48v4.11h5.93v2.58h-5.93v6.21h-3.37v-15.51z" fill="#fff"/><path d="m156.55 251h10.09v2.61h-6.72v3.54h6.08v2.59h-6.08v4.16h6.8v2.61h-10.17z" fill="#fff"/><path d="m174.26 250.69a10.65 10.65 0 0 1 2.66.3 10.25 10.25 0 0 1 2.07.76l-.77 2.51a12.82 12.82 0 0 0 -1.94-.75 7 7 0 0 0 -1.82-.26 3.15 3.15 0 0 0 -1.84.47 1.49 1.49 0 0 0 -.62 1.28 1.43 1.43 0 0 0 .57 1.23 6.2 6.2 0 0 0 1.82.81l1.47.47a6.69 6.69 0 0 1 2.9 1.75 3.92 3.92 0 0 1 1 2.78 4.6 4.6 0 0 1 -.37 1.85 4.11 4.11 0 0 1 -1.1 1.5 5.47 5.47 0 0 1 -1.85 1 8.38 8.38 0 0 1 -2.59.37 11.48 11.48 0 0 1 -5.09-1.13l.76-2.52a12.19 12.19 0 0 0 2.07.8 7.75 7.75 0 0 0 2.12.29 3.37 3.37 0 0 0 2-.48 1.57 1.57 0 0 0 .66-1.34 1.46 1.46 0 0 0 -.11-.58 1.34 1.34 0 0 0 -.41-.54 3.35 3.35 0 0 0 -.8-.52 8.57 8.57 0 0 0 -1.31-.51l-1.31-.44a10.31 10.31 0 0 1 -1.57-.69 5 5 0 0 1 -1.22-.91 3.72 3.72 0 0 1 -.79-1.22 4.33 4.33 0 0 1 -.28-1.64 4.58 4.58 0 0 1 .37-1.86 4 4 0 0 1 1.06-1.47 5.33 5.33 0 0 1 1.8-1 8 8 0 0 1 2.46-.31z" fill="#fff"/><path d="m192.91 251v2.65h-4.38v12.86h-3.37v-12.89h-4.29v-2.62z" fill="#fff"/><path d="m198.38 251v15.51h-3.38v-15.51z" fill="#fff"/><path d="m203.78 251 2.58 7.92c.09.27.18.58.3.95s.23.75.34 1.15.23.78.34 1.18.19.75.26 1.06h.07a21.05 21.05 0 0 1 .58-2.16c.25-.81.49-1.54.7-2.2l2.61-7.9h3.44l-5.54 15.51h-3.67l-5.58-15.51z" fill="#fff"/><path d="m219.12 251h3.49l5.74 15.51h-3.57l-1.21-3.57h-5.51l-1.21 3.57h-3.52zm-.3 9.45h3.94l-.71-2.07c-.23-.64-.45-1.28-.64-1.93s-.39-1.3-.57-2h-.05c-.18.63-.38 1.26-.59 1.91s-.43 1.31-.66 2z" fill="#fff"/><path d="m230.07 251h3.38v12.85h6.25v2.66h-9.63z" fill="#fff"/><g fill="#3d3d3d"><path d="m6.09 273.32a4.27 4.27 0 0 1 2.64.72 2.54 2.54 0 0 1 .94 2.14 2.21 2.21 0 0 1 -.58 1.63 3.22 3.22 0 0 1 -1.47.82 3.25 3.25 0 0 1 .94.31 2.55 2.55 0 0 1 .75.59 2.7 2.7 0 0 1 .52.85 3.23 3.23 0 0 1 .19 1.11 2.79 2.79 0 0 1 -.31 1.29 2.88 2.88 0 0 1 -.85 1 3.91 3.91 0 0 1 -1.27.65 5.29 5.29 0 0 1 -1.62.24h-3.28v-11.35zm-1.74 4.73h1.35a4.83 4.83 0 0 0 .86-.07 2 2 0 0 0 .73-.27 1.41 1.41 0 0 0 .5-.53 1.74 1.74 0 0 0 .21-.88 1.42 1.42 0 0 0 -.6-1.3 2.77 2.77 0 0 0 -1.56-.39h-1.49zm0 5.27h1.44a4.86 4.86 0 0 0 1-.09 2.25 2.25 0 0 0 .79-.34 1.66 1.66 0 0 0 .55-.62 2 2 0 0 0 .21-.94 1.59 1.59 0 0 0 -.34-.93 1.81 1.81 0 0 0 -.63-.6 3 3 0 0 0 -.9-.34 5.86 5.86 0 0 0 -1-.1h-1.12z"/><path d="m18.87 280.61h-6.06v.07a2.92 2.92 0 0 0 .76 2.16 2.84 2.84 0 0 0 2.08.75 6.22 6.22 0 0 0 1.21-.1 8.48 8.48 0 0 0 1.17-.36l.32 1.17a6 6 0 0 1 -1.23.37 7.39 7.39 0 0 1 -1.52.15 5.91 5.91 0 0 1 -1.72-.25 3.88 3.88 0 0 1 -1.42-.79 3.6 3.6 0 0 1 -1-1.36 5.67 5.67 0 0 1 -.05-3.78 3.79 3.79 0 0 1 .83-1.37 3.9 3.9 0 0 1 1.31-.89 4.66 4.66 0 0 1 1.72-.31 3.76 3.76 0 0 1 1.46.27 3.17 3.17 0 0 1 1.13.76 3.3 3.3 0 0 1 .72 1.17 4.27 4.27 0 0 1 .25 1.51zm-1.64-1.14a3.45 3.45 0 0 0 -.11-.87 2.07 2.07 0 0 0 -.36-.71 1.75 1.75 0 0 0 -.62-.49 2.4 2.4 0 0 0 -2.53.45 2.83 2.83 0 0 0 -.77 1.66z"/><path d="m20.38 284.66v-8.46h1.19l.27 1.69a2.87 2.87 0 0 1 1-1.32 2.75 2.75 0 0 1 1.62-.5 3.31 3.31 0 0 1 .77.07 3.69 3.69 0 0 1 .56.18l-.3 1.39a3.41 3.41 0 0 0 -.48-.18 2.3 2.3 0 0 0 -.62-.07 2.58 2.58 0 0 0 -1 .18 2.16 2.16 0 0 0 -.77.54 2.44 2.44 0 0 0 -.52.89 3.49 3.49 0 0 0 -.19 1.21v4.38z"/><path d="m27.46 284.66v-12.78h1.54v12.78z"/><path d="m32.39 274a1 1 0 0 1 -.71-.28.92.92 0 0 1 -.3-.69 1 1 0 0 1 .3-.71 1 1 0 0 1 .71-.28 1 1 0 0 1 .7.28.93.93 0 0 1 .31.71.89.89 0 0 1 -.31.69 1 1 0 0 1 -.7.28zm-.79 10.64v-8.44h1.58v8.46z"/><path d="m37.13 284.66h-1.58v-8.46h1.24l.24 1.17a4.87 4.87 0 0 1 1.32-1 3.64 3.64 0 0 1 1.59-.33 2.77 2.77 0 0 1 2 .73 2.72 2.72 0 0 1 .73 2v5.84h-1.54v-5.6a1.82 1.82 0 0 0 -.4-1.23 1.58 1.58 0 0 0 -1.24-.46 3.26 3.26 0 0 0 -2.36 1.13z"/><path d="m45.74 284.82a1 1 0 0 1 -.7-.4 1.28 1.28 0 0 1 -.23-.75 1.15 1.15 0 0 1 .29-.78 1.05 1.05 0 0 1 .84-.34 1.72 1.72 0 0 1 .44.06 1 1 0 0 1 .41.26 1.32 1.32 0 0 1 .32.52 2.57 2.57 0 0 1 .13.87 3.08 3.08 0 0 1 -.56 1.78 4.05 4.05 0 0 1 -1.42 1.28l-.53-.72a2.86 2.86 0 0 0 .84-.68 2.24 2.24 0 0 0 .5-1.05z"/><path d="m58.16 273.15a9.73 9.73 0 0 1 1.79.15 4.94 4.94 0 0 1 1.49.5l-.4 1.3a5.92 5.92 0 0 0 -1.3-.45 6.08 6.08 0 0 0 -1.38-.15 4.73 4.73 0 0 0 -1.51.24 3.17 3.17 0 0 0 -1.27.76 3.81 3.81 0 0 0 -.88 1.39 6.12 6.12 0 0 0 -.32 2.11 4.91 4.91 0 0 0 1 3.32 3.52 3.52 0 0 0 2.79 1.13 8 8 0 0 0 1.18-.07 4.52 4.52 0 0 0 1-.25v-3.13h-2.19v-1.3h3.69v5.47a10.44 10.44 0 0 1 -1.6.48 10.57 10.57 0 0 1 -2.09.19 6.3 6.3 0 0 1 -2.19-.38 4.9 4.9 0 0 1 -1.77-1.12 5.24 5.24 0 0 1 -1.2-1.83 6.91 6.91 0 0 1 -.43-2.51 7.08 7.08 0 0 1 .42-2.52 5.31 5.31 0 0 1 1.16-1.83 4.86 4.86 0 0 1 1.77-1.12 6.44 6.44 0 0 1 2.24-.38z"/><path d="m71.14 280.61h-6.07v.07a2.92 2.92 0 0 0 .77 2.16 2.84 2.84 0 0 0 2.08.75 6.29 6.29 0 0 0 1.21-.1 8.38 8.38 0 0 0 1.16-.36l.33 1.17a5.89 5.89 0 0 1 -1.24.37 7.32 7.32 0 0 1 -1.52.15 6 6 0 0 1 -1.72-.25 3.92 3.92 0 0 1 -1.41-.79 3.49 3.49 0 0 1 -1-1.36 4.94 4.94 0 0 1 -.35-2 5.39 5.39 0 0 1 .29-1.8 4 4 0 0 1 .84-1.37 3.9 3.9 0 0 1 1.31-.89 4.65 4.65 0 0 1 1.71-.31 3.85 3.85 0 0 1 1.47.27 3.17 3.17 0 0 1 1.13.76 3.3 3.3 0 0 1 .72 1.17 4.27 4.27 0 0 1 .25 1.51zm-1.64-1.14a3 3 0 0 0 -.12-.87 1.77 1.77 0 0 0 -.36-.71 1.67 1.67 0 0 0 -.62-.49 2.1 2.1 0 0 0 -.92-.18 2.17 2.17 0 0 0 -1.61.63 2.82 2.82 0 0 0 -.76 1.66z"/><path d="m72.79 284.66v-8.46h1.21l.27 1.69a2.87 2.87 0 0 1 1-1.32 2.75 2.75 0 0 1 1.62-.5 3.31 3.31 0 0 1 .77.07 3.69 3.69 0 0 1 .56.18l-.3 1.39a3.41 3.41 0 0 0 -.48-.18 2.25 2.25 0 0 0 -.62-.07 2.49 2.49 0 0 0 -1 .18 2.11 2.11 0 0 0 -.78.54 2.58 2.58 0 0 0 -.52.89 3.49 3.49 0 0 0 -.19 1.21v4.38z"/><path d="m81.09 284.66h-1.58v-8.46h1.22l.24 1.17a5.14 5.14 0 0 1 1.27-.95 3.64 3.64 0 0 1 1.64-.35 2.66 2.66 0 0 1 1.48.37 2.27 2.27 0 0 1 .86 1 4.65 4.65 0 0 1 1.39-1 3.82 3.82 0 0 1 1.67-.36 2.49 2.49 0 0 1 2 .73 3 3 0 0 1 .65 2v5.84h-1.62v-5.55a2 2 0 0 0 -.36-1.29 1.44 1.44 0 0 0 -1.19-.45 3.12 3.12 0 0 0 -2.28 1.09 1.09 1.09 0 0 1 0 .18v6h-1.57v-5.55a2 2 0 0 0 -.36-1.29 1.44 1.44 0 0 0 -1.19-.45 3 3 0 0 0 -2.27 1.15z"/><path d="m93.94 277 .81-.38a5.89 5.89 0 0 1 1.53-.45 7.85 7.85 0 0 1 .87-.05 5.19 5.19 0 0 1 1.29.15 2.65 2.65 0 0 1 1 .52 2.32 2.32 0 0 1 .66.94 3.91 3.91 0 0 1 .23 1.47v5.51h-1.33l-.2-.94a3.29 3.29 0 0 1 -1.23.85 4.27 4.27 0 0 1 -1.47.25 3.67 3.67 0 0 1 -1.13-.17 2.84 2.84 0 0 1 -.89-.49 2.06 2.06 0 0 1 -.58-.76 2.37 2.37 0 0 1 -.21-1 2.29 2.29 0 0 1 1-2 5 5 0 0 1 2.78-.69h1.62v-.76a1.42 1.42 0 0 0 -.47-1.25 2.14 2.14 0 0 0 -1.26-.33 4.56 4.56 0 0 0 -1.07.15 6 6 0 0 0 -1.37.58zm4.81 3.8h-1.33a3.36 3.36 0 0 0 -1.92.47 1.32 1.32 0 0 0 -.57 1.07 1.48 1.48 0 0 0 .13.64 1.05 1.05 0 0 0 .33.41 1.44 1.44 0 0 0 .49.2 2.25 2.25 0 0 0 .58.07 2.89 2.89 0 0 0 2.29-1.17z"/><path d="m104.14 284.66h-1.58v-8.46h1.24l.23 1.17a4.76 4.76 0 0 1 1.33-1 3.64 3.64 0 0 1 1.59-.33 2.54 2.54 0 0 1 2.77 2.75v5.84h-1.58v-5.6a1.77 1.77 0 0 0 -.41-1.23 1.54 1.54 0 0 0 -1.23-.46 3.24 3.24 0 0 0 -2.36 1.13z"/><path d="m110.77 276.2h1.69l1.81 4.84.61 2 .61-2 1.64-4.84h1.62l-3.26 9.18a6.76 6.76 0 0 1 -1.35 2.39 4.8 4.8 0 0 1 -2 1.26l-.68-1.26a4.69 4.69 0 0 0 1.5-.94 3.91 3.91 0 0 0 1-1.69l.16-.48z"/><path d="m146.88 189.15a9.34 9.34 0 0 1 1.6.14 6 6 0 0 1 1.53.49l-.4 1.37a7.51 7.51 0 0 0 -1.39-.51 5.44 5.44 0 0 0 -1.27-.15 2.6 2.6 0 0 0 -1.62.45 1.48 1.48 0 0 0 -.6 1.26 1.43 1.43 0 0 0 .44 1.09 3.68 3.68 0 0 0 1.45.72l1.14.36a4.27 4.27 0 0 1 2.18 1.33 3 3 0 0 1 .64 1.88 3.1 3.1 0 0 1 -.29 1.34 3.17 3.17 0 0 1 -.83 1 3.79 3.79 0 0 1 -1.25.64 5.31 5.31 0 0 1 -1.59.23 10.52 10.52 0 0 1 -1.75-.15 7.3 7.3 0 0 1 -1.77-.57l.39-1.35a7.77 7.77 0 0 0 1.51.56 6.58 6.58 0 0 0 1.55.18 3 3 0 0 0 1.66-.45 1.51 1.51 0 0 0 .68-1.34 1.72 1.72 0 0 0 -.1-.6 1.49 1.49 0 0 0 -.34-.53 2.55 2.55 0 0 0 -.66-.47 6.44 6.44 0 0 0 -1-.41l-1.13-.36a4.64 4.64 0 0 1 -1.91-1.08 2.54 2.54 0 0 1 -.67-1.86 3 3 0 0 1 1-2.36 4.2 4.2 0 0 1 2.8-.85z"/><path d="m159.62 196.61h-6.07v.07a2.92 2.92 0 0 0 .77 2.16 2.84 2.84 0 0 0 2.08.75 6.29 6.29 0 0 0 1.21-.1 8.38 8.38 0 0 0 1.16-.36l.33 1.17a5.89 5.89 0 0 1 -1.24.37 7.32 7.32 0 0 1 -1.52.15 6 6 0 0 1 -1.72-.25 3.92 3.92 0 0 1 -1.41-.79 3.49 3.49 0 0 1 -1-1.36 4.94 4.94 0 0 1 -.35-2 5.39 5.39 0 0 1 .29-1.8 4 4 0 0 1 .84-1.37 3.9 3.9 0 0 1 1.31-.89 4.66 4.66 0 0 1 1.72-.31 3.8 3.8 0 0 1 1.46.27 3.17 3.17 0 0 1 1.13.76 3.3 3.3 0 0 1 .72 1.17 4.27 4.27 0 0 1 .25 1.51zm-1.62-1.14a3 3 0 0 0 -.12-.87 1.77 1.77 0 0 0 -.36-.71 1.59 1.59 0 0 0 -.62-.49 2.08 2.08 0 0 0 -.91-.18 2.15 2.15 0 0 0 -1.61.63 2.83 2.83 0 0 0 -.77 1.66z"/><path d="m164.77 200.82a4 4 0 0 1 -1.11-.16 3.21 3.21 0 0 1 -.91-.44v4.58h-1.56v-12.73h1.31l.23 1.1a5.45 5.45 0 0 1 1.1-.78 3.12 3.12 0 0 1 1.44-.32 3.42 3.42 0 0 1 2.67 1.08 4.52 4.52 0 0 1 1 3.1 5.53 5.53 0 0 1 -.35 2.05 4.14 4.14 0 0 1 -.94 1.42 3.77 3.77 0 0 1 -1.33.83 4.47 4.47 0 0 1 -1.55.27zm.16-7.45a2.29 2.29 0 0 0 -1.31.37 3.69 3.69 0 0 0 -.87.74v4.52a3.19 3.19 0 0 0 .88.45 3.11 3.11 0 0 0 .94.14 2.76 2.76 0 0 0 1-.17 2.21 2.21 0 0 0 .87-.56 3.12 3.12 0 0 0 .61-1 4.65 4.65 0 0 0 .23-1.55 3.54 3.54 0 0 0 -.57-2.13 2 2 0 0 0 -1.78-.81z"/><path d="m175.1 193.38h-2.48v4.92a.94.94 0 0 0 .31.84 1.39 1.39 0 0 0 .82.22 4.6 4.6 0 0 0 .79-.08 5.61 5.61 0 0 0 .76-.19l.25 1.21a5.36 5.36 0 0 1 -.92.25 6.28 6.28 0 0 1 -1.17.11 2.6 2.6 0 0 1 -1.83-.55 2.09 2.09 0 0 1 -.58-1.6v-5.13h-1.26v-1.18h1.26v-2.7h1.57v2.7h2.48z"/><path d="m184.12 196.61h-6.07v.07a2.92 2.92 0 0 0 .77 2.16 2.84 2.84 0 0 0 2.08.75 6.29 6.29 0 0 0 1.21-.1 8.38 8.38 0 0 0 1.16-.36l.33 1.17a5.89 5.89 0 0 1 -1.24.37 7.32 7.32 0 0 1 -1.52.15 6 6 0 0 1 -1.72-.25 3.92 3.92 0 0 1 -1.41-.79 3.49 3.49 0 0 1 -1-1.36 4.94 4.94 0 0 1 -.35-2 5.39 5.39 0 0 1 .29-1.8 4 4 0 0 1 .84-1.37 3.9 3.9 0 0 1 1.31-.89 4.66 4.66 0 0 1 1.72-.31 3.8 3.8 0 0 1 1.46.27 3.26 3.26 0 0 1 1.13.76 3.3 3.3 0 0 1 .72 1.17 4.51 4.51 0 0 1 .25 1.51zm-1.64-1.14a3 3 0 0 0 -.12-.87 1.77 1.77 0 0 0 -.36-.71 1.59 1.59 0 0 0 -.62-.49 2.11 2.11 0 0 0 -.91-.18 2.19 2.19 0 0 0 -1.62.63 2.89 2.89 0 0 0 -.76 1.66z"/><path d="m187.38 200.66h-1.59v-8.46h1.21l.23 1.17a5.19 5.19 0 0 1 1.28-1 3.58 3.58 0 0 1 1.64-.35 2.63 2.63 0 0 1 1.47.37 2.23 2.23 0 0 1 .87 1 4.61 4.61 0 0 1 1.38-1 3.9 3.9 0 0 1 1.68-.36 2.48 2.48 0 0 1 2 .73 2.91 2.91 0 0 1 .66 2v5.84h-1.59v-5.55a2 2 0 0 0 -.36-1.29 1.42 1.42 0 0 0 -1.18-.45 3.16 3.16 0 0 0 -2.29 1.09 1.1 1.1 0 0 1 0 .18v6h-1.59v-5.55a2 2 0 0 0 -.36-1.29 1.42 1.42 0 0 0 -1.18-.45 3 3 0 0 0 -2.27 1.15z"/><path d="m208 196.43a5.17 5.17 0 0 1 -.3 1.81 4.35 4.35 0 0 1 -.83 1.39 3.63 3.63 0 0 1 -2.72 1.19 4 4 0 0 1 -1.45-.24 3.5 3.5 0 0 1 -1.16-.72l-.16.8h-1.13v-12.78h1.57v5.38a3.58 3.58 0 0 1 1.26-.9 3.83 3.83 0 0 1 1.45-.29 3.14 3.14 0 0 1 2.57 1.15 4.93 4.93 0 0 1 .9 3.21zm-1.65 0a3.78 3.78 0 0 0 -.6-2.24 1.93 1.93 0 0 0 -1.67-.83 2.56 2.56 0 0 0 -1.24.3 3.87 3.87 0 0 0 -1.06.87v4.1a2.94 2.94 0 0 0 .85.69 2.22 2.22 0 0 0 1.11.26 2.78 2.78 0 0 0 1-.18 2.11 2.11 0 0 0 .83-.56 2.71 2.71 0 0 0 .58-1 4.06 4.06 0 0 0 .22-1.4z"/><path d="m217 196.61h-6.06v.07a2.92 2.92 0 0 0 .76 2.16 2.85 2.85 0 0 0 2.08.75 6.4 6.4 0 0 0 1.22-.1 8.82 8.82 0 0 0 1.16-.36l.32 1.17a6 6 0 0 1 -1.23.37 7.32 7.32 0 0 1 -1.52.15 6 6 0 0 1 -1.72-.25 3.84 3.84 0 0 1 -1.41-.79 3.62 3.62 0 0 1 -1-1.36 5.67 5.67 0 0 1 0-3.78 4 4 0 0 1 .84-1.37 3.86 3.86 0 0 1 1.3-.89 4.66 4.66 0 0 1 1.72-.31 3.85 3.85 0 0 1 1.47.27 3.13 3.13 0 0 1 1.12.76 3.3 3.3 0 0 1 .72 1.17 4.27 4.27 0 0 1 .25 1.51zm-1.63-1.14a3 3 0 0 0 -.12-.87 2.07 2.07 0 0 0 -.36-.71 1.67 1.67 0 0 0 -.62-.49 2.13 2.13 0 0 0 -.92-.18 2.15 2.15 0 0 0 -1.61.63 2.82 2.82 0 0 0 -.76 1.66z"/><path d="m218.7 200.66v-8.46h1.18l.27 1.69a2.87 2.87 0 0 1 1-1.32 2.75 2.75 0 0 1 1.62-.5 3.46 3.46 0 0 1 .78.07 3.55 3.55 0 0 1 .55.18l-.3 1.39a3 3 0 0 0 -.48-.18 2.25 2.25 0 0 0 -.62-.07 2.49 2.49 0 0 0 -1 .18 2.19 2.19 0 0 0 -.78.54 2.58 2.58 0 0 0 -.52.89 3.75 3.75 0 0 0 -.19 1.21v4.38z"/><path d="m146 209.32h1.15v11.34h-1.55v-9.66l-2 .94-.36-1.32z"/><path d="m156.81 209.32v1.11l-4.89 10.57-1.35-.59 4.66-9.76h-5.47v-1.31z"/><path d="m164.89 216.17v1.1h-7.43v-1.1z"/><path d="m169.28 210.45a3.06 3.06 0 0 0 -1.09.2 4.68 4.68 0 0 0 -1.16.68l-.7-1.06a4.24 4.24 0 0 1 1.54-.9 5.16 5.16 0 0 1 1.41-.22 4.4 4.4 0 0 1 1.62.27 3.2 3.2 0 0 1 1.12.71 2.86 2.86 0 0 1 .67 1.06 4.08 4.08 0 0 1 .21 1.33 3.54 3.54 0 0 1 -.27 1.32 7.14 7.14 0 0 1 -.76 1.39 14.47 14.47 0 0 1 -1.2 1.48c-.47.51-1 1-1.58 1.61l-1.07 1h5.15v1.32h-6.82l-.29-1.14 1.5-1.49c.66-.66 1.22-1.25 1.7-1.77a13.78 13.78 0 0 0 1.16-1.42 5.29 5.29 0 0 0 .65-1.19 3 3 0 0 0 .21-1.08 2.33 2.33 0 0 0 -.49-1.52 1.84 1.84 0 0 0 -1.51-.58z"/><path d="m177.51 209.32h1.15v11.34h-1.55v-9.66l-2 .94-.36-1.32z"/></g></svg>