<svg viewBox="0 0 256 256" xmlns="http://www.w3.org/2000/svg"><path d="m108.7488 140.82c9.0354-11.4993 15.3331-25.19 15.3331-38.058 0-22.452-15.88-37.5115-35.5948-37.5115-16.4279 0-30.1182 10.952-34.4986 29.2972l-12.3211-3.012c5.75-24.3685 24.6422-38.88 46.82-38.88 26.8332 0 48.19 20.2617 48.19 50.1062 0 15.88-7.3925 32.0347-17.797 45.4513l-53.9404 72.2839h73.6529v12.5948h-93.6406v-6.5719z" fill="#95c9fd"/><path d="m200.3727 52.3822c44.904 0 56.4033 40.7964 56.4033 91.7236 0 50.38-11.4993 91.7244-56.4033 91.7244s-56.9505-41.3445-56.9505-91.7244c0-50.9272 12.0466-91.7236 56.9505-91.7236zm0 170.8525c35.0468 0 43.8085-35.5941 43.8085-79.1289 0-44.0821-8.7617-79.1288-43.8085-79.1288s-44.3557 35.0467-44.3557 79.1288c0 43.5348 9.309 79.1289 44.3557 79.1289z" fill="#3096fc"/><path d="m66.3055 108.6077c9.0353-11.4993 15.3331-25.19 15.3331-38.058 0-22.452-15.88-37.5115-35.5949-37.5115-16.4278 0-30.1181 10.9519-34.4986 29.2971l-12.3211-3.012c5.75-24.3685 24.6422-38.88 46.82-38.88 26.8332 0 48.19 20.2618 48.19 50.1063 0 15.88-7.3925 32.0346-17.797 45.4512l-53.9399 72.2839h73.6529v12.5947h-93.641v-6.5714z" fill="#3096fc"/><path d="m157.9294 20.17c44.904 0 56.4032 40.7963 56.4032 91.7236 0 50.38-11.4992 91.7244-56.4032 91.7244s-56.95-41.3445-56.95-91.7244c-.0005-50.9275 12.0461-91.7236 56.95-91.7236zm0 170.8524c35.0468 0 43.8085-35.5941 43.8085-79.1288 0-44.0821-8.7617-79.1289-43.8085-79.1289s-44.3558 35.0468-44.3558 79.1289c0 43.5345 9.3091 79.1286 44.3558 79.1286z" fill="#95c9fd"/></svg>