<svg viewBox="0 0 31 31" xmlns="http://www.w3.org/2000/svg"><path d="m15.5.5a15 15 0 1 0 15 15 15 15 0 0 0 -15-15zm6.38 12.42v.38a8.42 8.42 0 0 1 -13 7.1 5.37 5.37 0 0 0 .7 0 5.9 5.9 0 0 0 3.68-1.27 3 3 0 0 1 -2.77-2.05 3.53 3.53 0 0 0 .56.05 3.33 3.33 0 0 0 .78-.1 3 3 0 0 1 -2.33-2.87 2.77 2.77 0 0 0 1.34.37 2.94 2.94 0 0 1 -1.32-2.53 3 3 0 0 1 .4-1.49 8.39 8.39 0 0 0 6.08 3.12 2.93 2.93 0 0 1 0-.63 3 3 0 0 1 5.12-2 5.78 5.78 0 0 0 1.88-.79 2.92 2.92 0 0 1 -1.3 1.64 6 6 0 0 0 1.7-.46 6.11 6.11 0 0 1 -1.52 1.53z" fill="#fff"/></svg>